<svg width="20" height="20" viewBox="0 0 20 20" fill="none" xmlns="http://www.w3.org/2000/svg">
<path fill-rule="evenodd" clip-rule="evenodd" d="M10 20C15.5229 20 20 15.5229 20 10C20 4.47716 15.5229 0 10 0C4.47716 0 0 4.47716 0 10C0 15.5229 4.47716 20 10 20ZM7.85714 13.3929C7.36403 13.3929 6.96429 13.7926 6.96429 14.2857C6.96429 14.7789 7.36403 15.1786 7.85714 15.1786H10H12.1429C12.636 15.1786 13.0357 14.7789 13.0357 14.2857C13.0357 13.7926 12.636 13.3929 12.1429 13.3929H10.8929V9.28571C10.8929 8.7926 10.4931 8.39286 10 8.39286H8.57143C8.07831 8.39286 7.67857 8.7926 7.67857 9.28571C7.67857 9.77883 8.07831 10.1786 8.57143 10.1786H9.10714V13.3929H7.85714ZM11.4286 5.71429C11.4286 6.50326 10.789 7.14286 10 7.14286C9.21103 7.14286 8.57143 6.50326 8.57143 5.71429C8.57143 4.92531 9.21103 4.28571 10 4.28571C10.789 4.28571 11.4286 4.92531 11.4286 5.71429Z" fill="#A4A9AD"/>
</svg>
