<svg width="119" height="43" viewBox="0 0 119 43" fill="none" xmlns="http://www.w3.org/2000/svg">
<path d="M115.35 37.9213H3.65033V39.6142H115.35V37.9213Z" fill="white"/>
<path d="M17.573 33.8582C17.1041 33.8292 16.9582 33.2976 16.9582 33.2976C16.7185 32.5436 16.0098 32.012 16.0098 32.012C14.7384 30.9198 9.59039 27.9813 9.59039 27.9813C7.99595 27.3143 4.58823 26.3284 4.58823 26.3284C3.83791 25.9804 3.65033 25.1684 3.65033 25.1684C3.96296 25.1974 5.30729 24.6755 5.30729 24.6755L3.65033 22.8776L5.27603 22.3266L3.65033 20.9637L5.46361 19.9487C4.2756 11.5102 12.2791 9.48035 12.2791 9.48035C12.2791 9.48035 11.685 17.4839 12.7793 18.3828C12.7793 18.3828 15.0199 16.7879 17.573 16.7009" fill="white"/>
<path d="M17.5313 33.8583C18.0003 33.8293 18.1462 33.2976 18.1462 33.2976C18.3858 32.5436 19.0945 32.012 19.0945 32.012C20.3659 30.9198 25.5139 27.9813 25.5139 27.9813C27.1084 27.3143 30.5161 26.3284 30.5161 26.3284C31.2664 25.9804 31.454 25.1684 31.454 25.1684C31.1414 25.1974 29.797 24.6755 29.797 24.6755L31.454 22.8776L29.8283 22.3266L31.454 20.9637L29.6407 19.9487C30.8287 11.5102 22.8253 9.48035 22.8253 9.48035C22.8253 9.48035 23.4193 17.4839 22.3251 18.3828C22.3251 18.3828 20.0845 16.7879 17.5313 16.7009" fill="white"/>
<path d="M24.0263 22.2686C23.9948 22.2351 23.9239 22.2457 23.8849 22.2523C23.6833 22.287 23.5043 22.44 23.3759 22.5781C23.1766 22.7925 23.0322 23.0591 22.8488 23.2866C22.7035 23.4669 22.5357 23.6323 22.3588 23.7862C21.9219 24.1666 21.3486 24.4146 20.7384 24.3938C20.3118 24.3793 19.8729 24.1843 19.5243 23.965C19.5243 23.965 20.4075 22.1019 23.3384 22.1091C23.3384 22.1091 23.8153 22.0439 24.0263 22.2686Z" fill="white"/>
<path d="M11.8005 22.295C11.8321 22.2614 11.903 22.272 11.942 22.2787C12.1435 22.3134 12.3226 22.4664 12.4509 22.6045C12.6503 22.8189 12.7947 23.0854 12.978 23.313C13.1234 23.4933 13.2911 23.6587 13.468 23.8126C13.9049 24.1929 14.4783 24.441 15.0884 24.4202C15.515 24.4056 15.954 24.2106 16.3025 23.9914C16.3025 23.9914 15.4193 22.1283 12.4884 22.1355C12.4884 22.1355 12.0116 22.0703 11.8005 22.295Z" fill="white"/>
<path d="M46.0662 18.456H43.8958V27.8999C43.8958 28.788 44.6937 29.4985 45.6513 29.4985V32.3406C43.0021 32.3406 40.8637 30.3571 40.8637 27.8999V18.456H38.6933V15.6139H40.8637V11.1732H43.8958V15.6139H46.0662V18.456ZM52.3116 32.3998C49.9178 32.3998 48.0028 30.5939 48.0028 28.4032V19.6106C48.0028 17.4198 49.9178 15.6139 52.3116 15.6139C54.6735 15.6139 56.5885 17.4198 56.5885 19.6106V28.4032C56.5885 30.5939 54.6735 32.3998 52.3116 32.3998ZM52.3116 18.456C51.6094 18.456 51.0668 18.9889 51.0668 19.6106V28.4032C51.0668 29.0545 51.6094 29.5577 52.3116 29.5577C52.9818 29.5577 53.5564 29.0545 53.5564 28.4032V19.6106C53.5564 18.9889 52.9818 18.456 52.3116 18.456ZM63.6318 29.5281V32.3406H62.7062C60.4082 32.3406 58.5251 30.5939 58.5251 28.4624V11.2324H61.5572V28.4624C61.5572 29.0249 62.0679 29.5281 62.7062 29.5281H63.6318ZM69.3666 32.311C67.0685 32.311 65.2173 30.5643 65.2173 28.4328V19.1961C65.2173 17.2422 66.9409 15.6435 69.0474 15.6435H69.7177C71.8242 15.6435 73.5477 17.2422 73.5477 19.1961V23.0743L68.1856 23.1631V28.4328C68.1856 29.0545 68.6963 29.5577 69.3666 29.5577C70.0368 29.5577 70.5794 29.0545 70.5794 28.4328V26.5973H73.5477V28.4328C73.5477 30.5643 71.6646 32.311 69.3666 32.311ZM69.7177 18.3672H69.0474C68.5686 18.3672 68.1856 18.752 68.1856 19.1961V20.4395L70.5794 20.3803V19.1961C70.5794 18.752 70.1964 18.3672 69.7177 18.3672ZM84.07 11.2324V32.3998H79.3144C77.2078 32.3998 75.4843 30.8307 75.4843 28.8472V19.1665C75.4843 17.2126 77.2078 15.6139 79.3144 15.6139H81.006V11.2324H84.07ZM81.006 18.4264H79.3144C78.8675 18.4264 78.5164 18.752 78.5164 19.1665V28.8472C78.5164 29.2617 78.8675 29.5873 79.3144 29.5873H81.006V18.4264ZM90.3154 32.3998C87.9217 32.3998 86.0066 30.5939 86.0066 28.4032V19.6106C86.0066 17.4198 87.9217 15.6139 90.3154 15.6139C92.6773 15.6139 94.5924 17.4198 94.5924 19.6106V28.4032C94.5924 30.5939 92.6773 32.3998 90.3154 32.3998ZM90.3154 18.456C89.6133 18.456 89.0707 18.9889 89.0707 19.6106V28.4032C89.0707 29.0545 89.6133 29.5577 90.3154 29.5577C90.9857 29.5577 91.5602 29.0545 91.5602 28.4032V19.6106C91.5602 18.9889 90.9857 18.456 90.3154 18.456ZM100.678 32.311C98.3801 32.311 96.5289 30.5643 96.5289 28.4328V19.1961C96.5289 17.2422 98.2525 15.6435 100.359 15.6435H101.029C103.136 15.6435 104.859 17.2422 104.859 19.1961V23.0743L99.4972 23.1631V28.4328C99.4972 29.0545 100.008 29.5577 100.678 29.5577C101.348 29.5577 101.891 29.0545 101.891 28.4328V26.5973H104.859V28.4328C104.859 30.5643 102.976 32.311 100.678 32.311ZM101.029 18.3672H100.359C99.8802 18.3672 99.4972 18.752 99.4972 19.1961V20.4395L101.891 20.3803V19.1961C101.891 18.752 101.508 18.3672 101.029 18.3672ZM111.424 16.2948C113.594 16.2948 115.35 17.8935 115.35 19.9066V21.3276H112.318V19.9066C112.318 19.4329 111.935 19.0777 111.424 19.0777H110.754C110.275 19.0777 109.86 19.4329 109.86 19.9066L109.796 32.3998H106.796L106.86 19.9066V15.6435H109.86V16.3836C110.147 16.3244 110.466 16.2948 110.754 16.2948H111.424Z" fill="white"/>
</svg>
