<svg width="20" height="20" viewBox="0 0 20 20" fill="none" xmlns="http://www.w3.org/2000/svg">
<path fill-rule="evenodd" clip-rule="evenodd" d="M2.14285 0C0.95939 0 0 0.95939 0 2.14286V17.8571C0 19.0406 0.95939 20 2.14285 20H5.71428C6.89775 20 7.85714 19.0406 7.85714 17.8571V2.14286C7.85714 0.95939 6.89775 0 5.71428 0H2.14285ZM10.7139 8.57143C9.92497 8.57143 9.28537 9.21103 9.28537 10C9.28537 10.789 9.92497 11.4286 10.7139 11.4286H14.9997V13.5714C14.9997 13.8603 15.1737 14.1208 15.4407 14.2313C15.7075 14.3419 16.0148 14.2808 16.2191 14.0765L19.7905 10.5051C20.0694 10.2261 20.0694 9.77387 19.7905 9.49493L16.2191 5.9235C16.0148 5.71921 15.7075 5.6581 15.4407 5.76866C15.1737 5.87921 14.9997 6.13967 14.9997 6.42857V8.57143H10.7139Z" fill="#A4A9AD"/>
</svg>
