<svg width="20" height="20" viewBox="0 0 20 20" fill="none" xmlns="http://www.w3.org/2000/svg">
<g clip-path="url(#clip0_13_190)">
<path fill-rule="evenodd" clip-rule="evenodd" d="M10 -0.0010376C13.7451 -0.0010376 16.8659 3.11977 16.8659 6.86482C16.8659 8.08709 16.4457 9.29251 15.8586 10.3847C15.2691 11.4811 14.4889 12.5048 13.7137 13.3763C12.937 14.2495 12.1522 14.9847 11.5408 15.5042C11.2354 15.7636 10.9681 15.9736 10.762 16.1223C10.6602 16.1957 10.5648 16.2603 10.4825 16.3097C10.4425 16.3337 10.3937 16.3614 10.3418 16.3854C10.3159 16.3973 10.2787 16.4133 10.2344 16.4274C10.1995 16.4386 10.1123 16.4647 10 16.4647C9.88678 16.4647 9.79889 16.4382 9.76389 16.4269C9.71931 16.4124 9.68199 16.3963 9.65611 16.3843C9.60409 16.36 9.55524 16.3322 9.51519 16.3079C9.43291 16.258 9.33759 16.1929 9.23588 16.1189C9.02992 15.9692 8.76272 15.7577 8.45748 15.4966C7.84635 14.974 7.06195 14.235 6.28565 13.3594C5.51089 12.4856 4.73101 11.461 4.14175 10.3671C3.55502 9.27799 3.13418 8.07751 3.13418 6.86482C3.13418 3.11977 6.25498 -0.0010376 10 -0.0010376ZM10 8.91534C8.86755 8.91534 7.94951 7.99729 7.94951 6.86482C7.94951 5.73235 8.86755 4.81429 10 4.81429C11.1325 4.81429 12.0505 5.73235 12.0505 6.86482C12.0505 7.99729 11.1325 8.91534 10 8.91534ZM14.4274 14.5092C14.691 14.2129 14.9547 13.9024 15.2136 13.5799H15.816H17.1323C17.418 13.5799 17.6763 13.7502 17.7889 14.0128L19.9284 19.0054C20.023 19.2262 20.0004 19.4796 19.8683 19.68C19.7361 19.8804 19.512 20.001 19.272 20.001H0.728081C0.48798 20.001 0.26394 19.8804 0.131767 19.68C-0.000407096 19.4796 -0.0230309 19.2262 0.0715504 19.0054L2.21122 14.0128C2.32378 13.7502 2.58202 13.5799 2.86776 13.5799H4.18395H4.80395C5.05691 13.8949 5.31441 14.1985 5.57168 14.4886C6.51672 15.5546 7.47179 16.4544 8.21532 17.0902C8.58676 17.4079 8.91058 17.664 9.15856 17.8443C9.28128 17.9336 9.39396 18.0104 9.48934 18.0682C9.53592 18.0964 9.59025 18.1273 9.64658 18.1536C9.67464 18.1667 9.71382 18.1836 9.75998 18.1984C9.79657 18.2103 9.88574 18.2372 9.99995 18.2372C10.1132 18.2372 10.2017 18.2107 10.2381 18.1992C10.2841 18.1844 10.3231 18.1677 10.3511 18.1547C10.4074 18.1287 10.4616 18.0982 10.5082 18.0702C10.6036 18.0129 10.7164 17.9366 10.8391 17.848C11.0873 17.669 11.4112 17.4147 11.7828 17.099C12.5266 16.4672 13.4821 15.572 14.4274 14.5092Z" fill="#A4A9AD"/>
</g>
<defs>
<clipPath id="clip0_13_190">
<rect width="20" height="20" fill="white"/>
</clipPath>
</defs>
</svg>
