<svg width="20" height="21" viewBox="0 0 20 21" fill="none" xmlns="http://www.w3.org/2000/svg">
<g clip-path="url(#clip0_27_369)">
<path fill-rule="evenodd" clip-rule="evenodd" d="M14.2857 0.5C13.1022 0.5 12.1429 1.45939 12.1429 2.64286V18.3571C12.1429 19.5406 13.1022 20.5 14.2857 20.5H17.8571C19.0406 20.5 20 19.5406 20 18.3571V2.64286C20 1.45939 19.0406 0.5 17.8571 0.5H14.2857ZM5 6.92857C5 6.63967 4.82597 6.37921 4.55906 6.26866C4.29214 6.1581 3.98493 6.21921 3.78064 6.4235L0.20921 9.99493C-0.0697366 10.2739 -0.0697366 10.7261 0.20921 11.0051L3.78064 14.5765C3.98493 14.7808 4.29214 14.8419 4.55906 14.7313C4.82597 14.6208 5 14.3603 5 14.0714V11.9286H9.28571C10.0747 11.9286 10.7143 11.289 10.7143 10.5C10.7143 9.71103 10.0747 9.07143 9.28571 9.07143H5V6.92857Z" fill="#A4A9AD"/>
</g>
<defs>
<clipPath id="clip0_27_369">
<rect width="20" height="20" fill="white" transform="translate(0 0.5)"/>
</clipPath>
</defs>
</svg>
