<svg width="14" height="14" viewBox="0 0 14 14" fill="none" xmlns="http://www.w3.org/2000/svg">
<g clip-path="url(#clip0_1222_4505)">
<path d="M5.16948 13.2407C4.52893 13.654 3.76562 13.8341 3.0079 13.7507C2.25018 13.6674 1.54426 13.3257 1.00885 12.7831L0.540778 12.3254C0.335571 12.1155 0.220673 11.8336 0.220673 11.5401C0.220673 11.2465 0.335571 10.9646 0.540778 10.7547L2.52748 8.78885C2.73562 8.58429 3.01577 8.46967 3.3076 8.46967C3.59943 8.46967 3.87958 8.58429 4.08772 8.78885C4.29762 8.99405 4.5795 9.10895 4.87304 9.10895C5.16658 9.10895 5.44846 8.99405 5.65836 8.78885L8.77883 5.66837C8.88293 5.56579 8.96559 5.44353 9.02202 5.30871C9.07844 5.17389 9.10749 5.0292 9.10749 4.88305C9.10749 4.7369 9.07844 4.59221 9.02202 4.45739C8.96559 4.32257 8.88293 4.20032 8.77883 4.09773C8.57428 3.88959 8.45966 3.60944 8.45966 3.31761C8.45966 3.02579 8.57428 2.74563 8.77883 2.53749L10.7551 0.561194C10.965 0.355987 11.2469 0.241089 11.5405 0.241089C11.834 0.241089 12.1159 0.355987 12.3258 0.561194L12.7834 1.02927C13.326 1.56468 13.6677 2.27059 13.7511 3.02831C13.8344 3.78603 13.6544 4.54934 13.2411 5.1899C11.0879 8.36314 8.34827 11.0957 5.16948 13.2407Z" fill="#7ecdce"/>
</g>
<defs>
<clipPath id="clip0_1222_4505">
<rect width="14" height="14" fill="white"/>
</clipPath>
</defs>
</svg>
