<?xml version="1.0" encoding="UTF-8"?>
<svg version="1.1" xmlns="http://www.w3.org/2000/svg" width="471" height="471">
<path d="M0 0 C4.78562102 2.48744143 8.11075756 5.91986763 11.8125 9.75 C16.07938461 14.09642265 20.35881823 18.29493191 25.01171875 22.23046875 C28.12361218 24.99999276 31.01215181 27.99192274 33.93652344 30.95605469 C37.10856556 34.15443903 40.39289352 37.12634336 43.82421875 40.0390625 C47.30069003 43.17225565 50.54669156 46.5400107 53.78881836 49.91381836 C56.33897787 52.52468592 58.57348027 54.65386725 62 56 C62.20625 55.319375 62.4125 54.63875 62.625 53.9375 C64.42895027 50.08360625 66.9010345 46.92212236 70 44 C70.66 44 71.32 44 72 44 C72 43.34 72 42.68 72 42 C74.08984375 40.37890625 74.08984375 40.37890625 76.9375 38.5625 C77.85402344 37.96566406 78.77054688 37.36882813 79.71484375 36.75390625 C87.67533287 32.50389482 94.83303573 31.44547171 103.8125 31.5 C105.40481445 31.50640503 105.40481445 31.50640503 107.02929688 31.51293945 C115.08033722 31.68798896 121.03915186 32.75895345 128 37 C128.81984375 37.45375 129.6396875 37.9075 130.484375 38.375 C132.75 39.6875 132.75 39.6875 136 42 C136 42.66 136 43.32 136 44 C136.598125 44.2475 137.19625 44.495 137.8125 44.75 C140.39518922 46.22582241 141.33498766 47.53578173 143 50 C144.2065625 51.546875 144.2065625 51.546875 145.4375 53.125 C153.13480703 64.14772971 154.07787182 77.25220958 152.57421875 90.375 C151.50213952 95.27593361 149.3296582 99.58662991 147 104 C146.63261719 104.72960937 146.26523438 105.45921875 145.88671875 106.2109375 C143.43135838 110.85621387 143.43135838 110.85621387 140 112 C139.67 112.99 139.34 113.98 139 115 C137.44140625 116.60546875 137.44140625 116.60546875 135.5625 118.1875 C134.94503906 118.71730469 134.32757813 119.24710937 133.69140625 119.79296875 C132 121 132 121 130 121 C134.27773952 126.24023091 138.83862405 130.63931483 144 135 C144.33 135.33 144.66 135.66 145 136 C146.70509414 136.09543437 148.4108061 136.1845226 150.11767578 136.23974609 C160.95945952 136.60966269 170.31309918 138.97968202 180 144 C180.78375 144.391875 181.5675 144.78375 182.375 145.1875 C182.91125 145.455625 183.4475 145.72375 184 146 C184 146.66 184 147.32 184 148 C184.73089844 148.22743896 185.46179688 148.45487793 186.21484375 148.68920898 C189.58692787 150.27622859 191.1671345 152.12765308 193.5625 154.97265625 C204.19221697 167.94157375 204.19221697 167.94157375 219.0859375 173.90014648 C222.55873167 173.86657875 225.96523173 173.6569043 229.41552734 173.26074219 C233.77436228 172.8209882 238.12454734 172.95337598 242.5 173 C244.03125485 172.97952657 245.56250528 172.95871817 247.09375 172.9375 C251 173 251 173 253.74609375 173.79296875 C254.48988281 173.86128906 255.23367188 173.92960938 256 174 C258.44805346 172.0608476 258.44805346 172.0608476 260.5625 169.3125 C264.99244242 164.00731766 264.99244242 164.00731766 267.21484375 161.85546875 C269.22970882 160.02730534 269.22970882 160.02730534 270 157 C270.9590625 156.5359375 270.9590625 156.5359375 271.9375 156.0625 C274.52700822 154.72851092 274.72920394 153.5684811 276 151 C277.41699219 149.29589844 277.41699219 149.29589844 279.046875 147.609375 C279.645 146.98160156 280.243125 146.35382813 280.859375 145.70703125 C281.48328125 145.06121094 282.1071875 144.41539062 282.75 143.75 C287.13386091 139.2082458 291.13513117 134.6655067 294.74707031 129.47753906 C295.36727051 128.74615723 295.36727051 128.74615723 296 128 C296.66 128 297.32 128 298 128 C298.4021875 127.1028125 298.4021875 127.1028125 298.8125 126.1875 C300.81718809 122.49465352 303.14457915 120.6127703 307 119 C311.67166102 118.67407016 315.13764953 119.40713405 319 122.0625 C321.44623979 125.65541469 322.32074542 128.65760042 322 133 C320.70593757 137.55896705 318.16415925 140.2844191 314.9375 143.6875 C311.58041094 147.06920684 311.58041094 147.06920684 309 151 C308.34 151 307.68 151 307 151 C306.67 151.99 306.34 152.98 306 154 C305.34 154 304.68 154 304 154 C303.75636719 154.73605469 303.51273437 155.47210938 303.26171875 156.23046875 C301.84747386 159.33480197 300.28694998 160.98285432 297.8125 163.3125 C292.70977989 168.24294178 288.02015801 173.37925448 283.6875 179 C283.130625 179.66 282.57375 180.32 282 181 C281.34 181 280.68 181 280 181 C279.7525 181.556875 279.505 182.11375 279.25 182.6875 C277.77075182 185.42410913 276.06532561 187.67650869 274 190 C273.34 190 272.68 190 272 190 C272.7115625 191.0828125 272.7115625 191.0828125 273.4375 192.1875 C276.85679315 199.058651 276.8723738 208.50865084 274.84765625 215.81640625 C270.59990299 226.75877524 263.24049606 233.6664083 253 239 C253.60585938 239.53367188 254.21171875 240.06734375 254.8359375 240.6171875 C260.20575313 245.39219278 265.37136785 250.29514274 270.3828125 255.4453125 C271.24648438 256.28835938 272.11015625 257.13140625 273 258 C273.65559402 258.86575905 273.65559402 258.86575905 274.32443237 259.74900818 C278.15901737 264.11598477 281.65189879 265.42943104 287.28576851 265.80772495 C291.65104974 265.94947359 296.00808923 265.93831694 300.375 265.90234375 C302.26930451 265.91173567 304.16359607 265.92419767 306.05786133 265.93959045 C311.02289978 265.97174316 315.9870122 265.96240059 320.9520874 265.94421387 C326.02675411 265.93303552 331.10118631 265.96137915 336.17578125 265.98632812 C346.11735264 266.02941518 356.05839446 266.02863652 366 266 C367.90962814 261.18172271 368.28622177 256.83200249 368.26069641 251.71261597 C368.26452196 250.89360121 368.26834751 250.07458645 368.27228898 249.23075306 C368.28258277 246.49475259 368.27863378 243.75896339 368.2746582 241.02294922 C368.27900656 239.05813402 368.28419012 237.09332051 368.29014587 235.12850952 C368.30353066 229.7981686 368.30411534 224.4678986 368.30158257 219.13754416 C368.30051297 214.68887674 368.30539572 210.24022368 368.310188 205.79155934 C368.32128039 195.300319 368.32172143 184.80911446 368.31567383 174.31787109 C368.30962698 163.48757702 368.32196373 152.65741263 368.3432439 141.82714069 C368.36083923 132.53105969 368.36686471 123.23502005 368.36360615 113.938923 C368.36179058 108.38548386 368.36445721 102.83213732 368.37832069 97.27871323 C368.39086154 92.06005979 368.38899053 86.84160932 368.37590981 81.62295914 C368.37353666 79.70569033 368.37630496 77.7884074 368.38453293 75.87115479 C368.39493942 73.25833737 368.3869493 70.64620886 368.3742218 68.03341675 C368.38159609 67.27097117 368.38897037 66.5085256 368.39656812 65.72297561 C368.36580471 62.73077779 368.1257204 60.299798 366.96364498 57.52866554 C363.94514177 55.1788101 360.87302437 55.45687539 357.2074585 55.50793457 C356.40537437 55.50325558 355.60329024 55.49857659 354.77690053 55.49375582 C352.07978478 55.48279231 349.38359556 55.50033904 346.68652344 55.51757812 C344.75657373 55.51539307 342.82662534 55.51139758 340.89668274 55.50572205 C336.7354217 55.49714364 332.57441829 55.50096003 328.41316986 55.5141449 C321.83275372 55.53444196 315.25259859 55.52452079 308.67218018 55.5098877 C293.51031729 55.48081818 278.34853035 55.4915815 263.18665314 55.50258636 C249.30308269 55.51225863 235.41964787 55.51354362 221.53610063 55.48270559 C214.9956195 55.46932643 208.45552795 55.4753009 201.91507006 55.49607086 C197.84264512 55.5050584 193.77037025 55.49758095 189.69795799 55.48565865 C187.81097341 55.48352822 185.92396661 55.48824691 184.03701973 55.5003643 C181.45776839 55.51599175 178.87970571 55.50699531 176.30047607 55.49206543 C175.55639551 55.50255433 174.81231494 55.51304322 174.04568648 55.52384996 C168.51149577 55.45267672 165.45009279 54.06360103 161 51 C158.94812958 48.26417277 157.92754819 46.47511891 158.09765625 43.01171875 C159.07870829 37.95406214 160.93714688 35.31876563 165 32 C167.96104881 31.50535521 170.3465507 31.31839931 173.30311584 31.35835266 C174.5525162 31.34559438 174.5525162 31.34559438 175.82715696 31.33257836 C178.61705455 31.31030106 181.4056192 31.32374768 184.19555664 31.3371582 C186.19651241 31.3287452 188.19746024 31.31822016 190.19839478 31.30574036 C195.6348216 31.2786495 201.07079024 31.28340626 206.50725484 31.29544091 C211.04958516 31.30256941 215.59183059 31.29407411 220.13415426 31.28553551 C230.857336 31.26556742 241.58029493 31.27116657 252.3034668 31.29321289 C263.35016606 31.31553922 274.39627979 31.29802686 285.44292361 31.26016361 C294.93617224 31.22887269 304.42924017 31.22103211 313.92253393 31.23211735 C319.58811527 31.23859124 325.25335941 31.23666632 330.91890144 31.21279335 C336.25351783 31.19146132 341.58731351 31.19962352 346.92187881 31.22988701 C348.87286879 31.23618862 350.82392316 31.23241638 352.7748661 31.21747589 C364.77095472 31.13310422 374.78861405 31.59897791 384.2476511 39.99507618 C390.18550054 45.94135029 392.31568415 53.43780072 392.40123022 61.71329474 C392.39453805 62.51244056 392.38784589 63.31158638 392.38095093 64.13494873 C392.3856309 65.00890738 392.39031087 65.88286602 392.39513266 66.78330827 C392.40701917 69.68740279 392.39765053 72.59101986 392.38818359 75.49511719 C392.39225199 77.58683038 392.39759538 79.67854142 392.40411377 81.77024841 C392.41775777 87.43314761 392.41250161 93.09588233 392.40297651 98.75878429 C392.39536887 104.68882368 392.40242822 110.61884921 392.40713501 116.54888916 C392.41258762 126.50185673 392.40541209 136.45475743 392.39111328 146.40771484 C392.37476982 157.91685988 392.38008962 169.42584562 392.3965925 180.93498683 C392.41020001 190.8205288 392.41213115 200.70602279 392.40427649 210.59157109 C392.39959826 216.49430914 392.39897968 222.39697226 392.40888596 228.29970551 C392.41754324 233.84507791 392.41155627 239.39024443 392.39420319 244.93559456 C392.39023251 246.97177094 392.39138229 249.00796461 392.39799118 251.04413414 C392.40617324 253.82065294 392.39592563 256.59650939 392.38095093 259.37298584 C392.38764309 260.18105454 392.39433526 260.98912324 392.40123022 261.82167888 C392.35288757 266.43375848 391.7543138 269.28642791 389 273 C388.38125 273.99 387.7625 274.98 387.125 276 C382.52814638 282.4896757 377.48624893 286.35283506 370 289 C365.0832619 289.70353113 360.19909071 289.72364624 355.2421875 289.70703125 C353.84398266 289.72017422 352.44579669 289.73548633 351.04763794 289.75285339 C347.40130432 289.79241407 343.75547059 289.80287484 340.10894775 289.80688477 C336.37456371 289.81627149 332.64046677 289.85371895 328.90625 289.88867188 C321.60416365 289.95295208 314.30237561 289.98643394 307 290 C307.47308594 290.44279297 307.94617188 290.88558594 308.43359375 291.34179688 C310.62369505 293.39314907 312.81185259 295.44656383 315 297.5 C315.74378906 298.19609375 316.48757813 298.8921875 317.25390625 299.609375 C321.65168274 303.73946075 325.96948272 307.93011049 330.20019531 312.23144531 C331.9885226 313.98872188 333.83894234 315.62792126 335.75 317.25 C339.34516715 320.3356159 342.67338096 323.63197291 346 327 C349.85120964 330.89896918 353.76421745 334.60824312 357.94140625 338.16015625 C361.07230281 340.95835792 363.98829695 343.96773656 366.93603516 346.95556641 C369.52022318 349.56120739 372.14209158 352.06053109 374.9375 354.4375 C379.04426535 357.93710497 382.78724806 361.75982009 386.57568359 365.59521484 C389.90566329 368.95044557 393.33922489 372.09717875 396.94140625 375.16015625 C399.56498378 377.50494756 402.02993634 379.99627278 404.5 382.5 C408.83399041 386.88234735 413.28024622 391.03757061 418 395 C416.5140084 399.59306496 414.14985318 402.43569245 411 406 C406.42249 403.58810234 403.23317122 400.4293519 399.6875 396.75 C395.59969801 392.57977803 391.47933964 388.58374374 387.0234375 384.8046875 C383.90207569 382.02077021 380.99978177 379.02017656 378.0637207 376.04418945 C375.47961541 373.43862818 372.85782054 370.93939418 370.0625 368.5625 C365.95573465 365.06289503 362.21275194 361.24017991 358.42431641 357.40478516 C355.09433671 354.04955443 351.66077511 350.90282125 348.05859375 347.83984375 C344.92769719 345.04164208 342.01170305 342.03226344 339.06396484 339.04443359 C336.47977682 336.43879261 333.85790842 333.93946891 331.0625 331.5625 C326.95573465 328.06289503 323.21275194 324.24017991 319.42431641 320.40478516 C316.09433671 317.04955443 312.66077511 313.90282125 309.05859375 310.83984375 C305.92769719 308.04164208 303.01170305 305.03226344 300.06396484 302.04443359 C297.47977682 299.43879261 294.85790842 296.93946891 292.0625 294.5625 C288.523209 291.54647173 285.26505555 288.30552099 282 285 C278.75548124 281.71532009 275.52077642 278.49265996 272 275.5 C267.91125235 272.0245645 264.19183316 268.21899763 260.42407227 264.40454102 C257.0941767 261.04939106 253.66068601 257.90274548 250.05859375 254.83984375 C246.92769719 252.04164208 244.01170305 249.03226344 241.06396484 246.04443359 C238.47977682 243.43879261 235.85790842 240.93946891 233.0625 238.5625 C229.52858835 235.55722678 226.30678019 232.30921652 223.0625 229 C218.35502858 224.20914462 213.46945472 219.92253824 208 216 C207.89558594 216.69996094 207.79117187 217.39992187 207.68359375 218.12109375 C206.90059625 221.41863179 205.61806854 224.05405327 204.0625 227.0625 C203.53785156 228.08472656 203.01320312 229.10695312 202.47265625 230.16015625 C201.61551721 231.81304772 200.74109139 233.45760592 199.82421875 235.078125 C197.18653306 241.22855798 198.88057657 249.86250299 201 256 C202.95694782 260.37255528 204.73058404 263.31239969 209 265.625 C209.59167969 265.82480469 210.18335938 266.02460938 210.79296875 266.23046875 C213.73866894 267.25755359 216.49354901 268.60255611 219.3125 269.9375 C224.00690917 272.11570586 228.72467722 274.12408625 233.54296875 276.0078125 C239.0946874 278.24968299 244.4998867 280.83994743 249.9296875 283.359375 C254.56203111 285.49351704 259.09873794 287.54286804 264 289 C264 289.66 264 290.32 264 291 C264.83917969 291.09023438 265.67835938 291.18046875 266.54296875 291.2734375 C270.52729664 292.11082167 273.77889564 293.68278348 277.3125 295.625 C277.97185547 295.98400391 278.63121094 296.34300781 279.31054688 296.71289062 C288.0084991 301.55267366 294.73268289 307.27139134 301 315 C301.804375 315.94875 302.60875 316.8975 303.4375 317.875 C305 320 305 320 305 322 C305.66 322.33 306.32 322.66 307 323 C311.58062909 329.45452282 314.04548822 337.24259411 315.5703125 344.93359375 C316.01192715 347.21864668 316.01192715 347.21864668 317 350.25 C318.17816489 354.66811835 318.83686792 359.06869652 319.49609375 363.58984375 C319.9732911 366.81924907 320.50786534 370.03311899 321.0625 373.25 C321.64752666 376.70573886 322.15127388 380.13773879 322.5 383.625 C322.91328649 387.69882395 323.69475418 391.6488859 324.5234375 395.65625 C325.7165544 401.52403804 326.10459119 407.03830193 326 413 C325.34 413 324.68 413 324 413 C323.67 414.32 323.34 415.64 323 417 C322.34 417 321.68 417 321 417 C321 417.66 321 418.32 321 419 C317.28170161 420.85914919 313.05831264 420.42819992 309 420 C306 418.625 306 418.625 304 416 C302.99870766 412.70129803 302.48299654 409.40722558 302 406 C301.82855469 405.15824219 301.65710938 404.31648438 301.48046875 403.44921875 C300.90782622 400.53013856 300.64043313 397.63213671 300.37890625 394.671875 C300.04896171 392.34525577 299.58938297 390.1378449 299.05859375 387.8515625 C297.90996584 382.80987112 297.18860084 377.7467317 296.5 372.625 C296.23946528 370.76806266 295.97775873 368.91128933 295.71484375 367.0546875 C295.59093262 366.17780273 295.46702148 365.30091797 295.33935547 364.39746094 C294.29481382 357.01803718 293.22626762 350.65347875 289.8046875 343.97265625 C289 342 289 342 289 338 C288.34 338 287.68 338 287 338 C284.95830515 335.09451118 284 333.59857954 284 330 C283.01 329.67 282.02 329.34 281 329 C279.64172029 327.35360035 278.30745749 325.68704193 277 324 C276.34 323.67 275.68 323.34 275 323 C275 322.34 275 321.68 275 321 C274.48695313 320.90847656 273.97390625 320.81695312 273.4453125 320.72265625 C270.04252764 319.71704092 267.01214638 318.06458057 263.875 316.4375 C256.91363667 312.88139065 249.84719372 309.63945865 242.67724609 306.52709961 C237.09416018 304.09416018 237.09416018 304.09416018 236 303 C236.00785522 303.85325111 236.00785522 303.85325111 236.01586914 304.72373962 C236.06278727 310.67851888 236.05338646 316.63137408 236.01220703 322.58618164 C236.00412772 324.80427451 236.01010465 327.02246713 236.03076172 329.24047852 C236.05807845 332.44156758 236.03378535 335.63888499 236 338.83984375 C236.02912476 340.31226784 236.02912476 340.31226784 236.05883789 341.81443787 C235.91608218 348.72776087 233.94250752 352.23675002 229.203125 357.22828674 C224.97045508 360.6321233 220.37036239 361.73148188 215 362 C208.44741012 360.84585065 203.28039757 357.44914762 197.81640625 353.82421875 C194.26640348 351.52484109 190.58705331 349.54781029 186.859375 347.5546875 C181.83694927 344.82391504 176.92351312 341.90427126 172 339 C171.56300781 339.91845703 171.56300781 339.91845703 171.1171875 340.85546875 C170 343 170 343 168.125 345.3125 C166.47473296 347.39960243 165.2192281 349.26422892 163.9375 351.5625 C162.42365807 354.24834859 161.0321387 356.69075148 159 359 C158.34 359 157.68 359 157 359 C156.855625 359.61875 156.71125 360.2375 156.5625 360.875 C156 363 156 363 155 365 C154.34 365 153.68 365 153 365 C152.71898437 365.57492187 152.43796875 366.14984375 152.1484375 366.7421875 C151.04084588 368.91969755 149.87712999 371.02748288 148.625 373.125 C148.22539062 373.80820312 147.82578125 374.49140625 147.4140625 375.1953125 C144.96791621 378.3171898 142.36644002 378.92004945 138.5625 379.75 C134.78182147 380.01531077 133.31273696 379.7001605 130 378 C128.015625 375.9765625 128.015625 375.9765625 126.25 373.625 C125.65703125 372.85414063 125.0640625 372.08328125 124.453125 371.2890625 C123.0781687 369.12313671 122.43479377 367.50578512 122 365 C121.34 365 120.68 365 120 365 C118.45369798 362.98801629 117.02776002 360.98372421 115.625 358.875 C115.04492188 358.02035156 115.04492188 358.02035156 114.453125 357.1484375 C112.56467493 354.36012195 110.70558116 351.55355398 108.8515625 348.7421875 C107.0178162 345.93601509 107.0178162 345.93601509 104.75 343.25 C103 341 103 341 103 339 C98.70688625 341.05277527 94.77273146 343.07917564 91 346 C87.8058005 347.8904446 84.5792719 349.687631 81.3125 351.44921875 C75.40225355 354.63503122 75.40225355 354.63503122 69.75 358.25 C64.79909416 361.40057645 59.98241365 362.63162329 54.12109375 361.671875 C49.00931854 360.05267549 44.51481028 356.99679536 41.28125 352.734375 C39.6948036 349.34866621 39.48491233 346.73943182 39.3125 343 C39.27906494 342.29883057 39.24562988 341.59766113 39.21118164 340.87524414 C38.71807697 328.59885901 38.9185205 316.28334733 39 304 C37.27214681 304.61094524 35.54589846 305.22643011 33.8203125 305.84375 C32.85883301 306.18599609 31.89735352 306.52824219 30.90673828 306.88085938 C27.27516623 308.27907257 23.86655493 309.98690967 20.4140625 311.7734375 C17.33973794 313.33547295 14.19866446 314.71100685 11.0390625 316.08984375 C9.21122169 316.90571905 7.41534176 317.79232912 5.625 318.6875 C3 320 3 320 0 321 C0 321.66 0 322.32 0 323 C-1.66666667 324.33333333 -3.33333333 325.66666667 -5 327 C-15.17828504 337.9230376 -19.30300049 353.18800508 -20.71875 367.75 C-21.00636272 370.0509018 -21.46733267 372.24399719 -22 374.5 C-22.84647314 378.12240709 -23.35228366 381.66566442 -23.7265625 385.36328125 C-26.370271 410.8561846 -26.370271 410.8561846 -31.0625 418.25 C-35.29515405 420.77158114 -39.18340959 420.59674571 -44 420 C-44.66 419.67 -45.32 419.34 -46 419 C-46 418.34 -46 417.68 -46 417 C-47.32 416.67 -48.64 416.34 -50 416 C-49.67 415.01 -49.34 414.02 -49 413 C-49.66 413 -50.32 413 -51 413 C-51.02753831 411.4792733 -51.04663375 409.95839326 -51.0625 408.4375 C-51.07410156 407.59058594 -51.08570313 406.74367188 -51.09765625 405.87109375 C-50.98352832 402.51573274 -50.52127228 399.31750107 -50 396 C-49.885354 395.26579834 -49.77070801 394.53159668 -49.65258789 393.77514648 C-49.14309103 390.52488482 -48.62384842 387.2761985 -48.10546875 384.02734375 C-47.53006252 380.40635304 -46.97075708 376.7884189 -46.46875 373.15625 C-46.10262074 370.69097967 -45.62533069 368.4028455 -45 366 C-44.67192379 364.16938989 -44.36104116 362.33565807 -44.0625 360.5 C-43.88203125 359.43265625 -43.7015625 358.3653125 -43.515625 357.265625 C-43.19258485 355.21970403 -42.90549152 353.16742526 -42.671875 351.109375 C-41.35008841 340.59255128 -36.77743977 331.36378196 -32 322 C-31.34 322 -30.68 322 -30 322 C-29.79375 321.319375 -29.5875 320.63875 -29.375 319.9375 C-25.50648825 311.67295218 -17.40086787 305.09769322 -10 300 C-9.34 300 -8.68 300 -8 300 C-8 299.34 -8 298.68 -8 298 C-6.96875 297.566875 -5.9375 297.13375 -4.875 296.6875 C-2.44935239 295.65144404 -0.11342061 294.5567103 2.25 293.375 C5.37726315 291.81136843 7.48687533 291 11 291 C11 290.34 11 289.68 11 289 C18.28571429 285.57142857 18.28571429 285.57142857 23 286 C23 285.34 23 284.68 23 284 C27.06189059 282.20694946 31.12461769 280.41580212 35.1875 278.625 C36.33798828 278.11710937 37.48847656 277.60921875 38.67382812 277.0859375 C39.78564453 276.59609375 40.89746094 276.10625 42.04296875 275.6015625 C43.57473755 274.92601318 43.57473755 274.92601318 45.13745117 274.23681641 C47.74220676 273.11138427 50.36151977 272.04330485 53 271 C57.08817371 269.27092653 61.07848318 267.56092328 64.875 265.25 C67 264 67 264 70 264 C70.28875 263.2575 70.5775 262.515 70.875 261.75 C72 259 72 259 73 257.15625 C75.93247866 250.8330929 76.59325214 242.88172477 76 236 C75.04370695 234.30787667 74.03591936 232.64458166 73 231 C61.98764397 210.07396847 61.98764397 210.07396847 61 200 C60.7525 199.154375 60.505 198.30875 60.25 197.4375 C59.88125384 193.84222498 61.05267295 191.98590148 63 189 C66.45735205 186.29018353 69.61178602 185.17911077 74 185 C77.39486325 186.19818703 79.40254687 187.2697795 81.6875 190.0625 C83.20614014 193.46136126 84.17403598 196.89037593 85.1953125 200.46484375 C86.38634832 204.21718476 88.15462466 207.53533835 90 211 C91.06810698 213.10132603 92.13029114 215.20566991 93.1875 217.3125 C93.69667969 218.31925781 94.20585937 219.32601562 94.73046875 220.36328125 C96 223 96 223 97 226 C97.66 226 98.32 226 99 226 C100.37015264 227.57669369 101.67291702 229.21243838 102.9375 230.875 C105.22906462 233.88187545 106.83581038 235.89054025 110 238 C110 238.66 110 239.32 110 240 C110.804375 240.37125 110.804375 240.37125 111.625 240.75 C114 242 114 242 116.8125 243.9375 C124.75368042 249.07591086 133.83200059 252.44086475 143.3125 250.53515625 C152.63194017 248.07424158 160.18358216 243.47400251 166.625 236.3203125 C168 235 168 235 170 235 C170.2475 234.443125 170.495 233.88625 170.75 233.3125 C172.22924818 230.57589087 173.93467439 228.32349131 176 226 C176.66 226 177.32 226 178 226 C178.2578125 225.13246094 178.515625 224.26492187 178.78125 223.37109375 C180.0228948 219.93667241 181.5783996 217.16067353 183.5 214.0625 C187.89017413 206.84034057 187.89017413 206.84034057 188.81640625 198.61328125 C187.42173958 194.1490133 184.00010247 191.652786 180.66015625 188.51953125 C178 186 178 186 176.12109375 183.76171875 C172.85669004 180.11756338 171.01245068 179.06054852 166.015625 178.76171875 C158.78450404 178.91827574 158.78450404 178.91827574 152 181 C149.8806903 181.09759615 147.75827347 181.13077184 145.63671875 181.1328125 C144.35732422 181.13410156 143.07792969 181.13539063 141.75976562 181.13671875 C141.09114502 181.13462402 140.42252441 181.1325293 139.73364258 181.13037109 C137.70581481 181.12504808 135.67821125 181.1303055 133.65039062 181.13671875 C131.72549805 181.13478516 131.72549805 181.13478516 129.76171875 181.1328125 C128.58569092 181.13168457 127.40966309 181.13055664 126.19799805 181.12939453 C123.33173468 181.01342235 120.78802034 180.6354349 118 180 C116.41854426 179.83504684 114.8349631 179.68940064 113.25 179.5625 C108.36994602 179.09464822 103.75514643 178.16373924 99 177 C97.57494141 176.69255859 97.57494141 176.69255859 96.12109375 176.37890625 C90.02318463 175.0004517 84.7523798 173.17007431 79.25390625 170.18359375 C76.88691911 168.94061784 74.49310924 167.96139507 72 167 C68.19752138 165.39450903 64.94208276 163.39148988 61.6875 160.875 C61.01074219 160.35679687 60.33398438 159.83859375 59.63671875 159.3046875 C54.87659217 152.60188397 57.3556304 142.84162095 58.375 135.25 C58.58382812 133.58517578 58.58382812 133.58517578 58.796875 131.88671875 C59.81749833 123.885417 59.81749833 123.885417 60.54931641 120.33496094 C61.09475876 117.90540428 61.09475876 117.90540428 61 115 C60.16597656 114.75765625 59.33195312 114.5153125 58.47265625 114.265625 C52.43031407 112.46607292 46.64262905 110.54703829 40.9296875 107.87890625 C37.09317068 106.13150486 33.10044986 104.94625766 29 104 C29 103.34 29 102.68 29 102 C27.2365625 101.814375 27.2365625 101.814375 25.4375 101.625 C21.45879574 101.13564065 17.82233441 100.1944795 14 99 C14 98.34 14 97.68 14 97 C13.1028125 96.5978125 13.1028125 96.5978125 12.1875 96.1875 C9.91520935 94.95397079 8.60599896 94.0188405 7 92 C6.63671875 89.625 6.63671875 89.625 6.6875 87 C6.69136719 86.13375 6.69523437 85.2675 6.69921875 84.375 C7 82 7 82 9 79 C9.66 79 10.32 79 11 79 C11 78.34 11 77.68 11 77 C11.6084375 76.78085938 12.216875 76.56171875 12.84375 76.3359375 C13.7203125 76.01882812 14.596875 75.70171875 15.5 75.375 C16.49515625 75.01535156 17.4903125 74.65570313 18.515625 74.28515625 C21.03624263 73.35546656 23.543316 72.40700302 26.046875 71.43359375 C26.74232422 71.16562988 27.43777344 70.89766602 28.15429688 70.62158203 C29.52249893 70.09336423 30.88851208 69.55943119 32.25195312 69.01904297 C36.52062469 67.37930051 40.45014143 66.48916873 45 66 C45 65.34 45 64.68 45 64 C45.99 63.67 46.98 63.34 48 63 C44.5547403 59.45784237 41.0768334 56.01652382 37.3125 52.8125 C33.69860287 49.70384674 30.34713174 46.38885354 27 43 C23.1487936 39.1010267 19.23578249 35.39175684 15.05859375 31.83984375 C11.44484967 28.61010284 8.09652052 25.10650413 4.69921875 21.65234375 C1.73517527 18.73977425 -1.36757194 16.09675225 -4.63671875 13.53515625 C-6 12 -6 12 -6 8 C-4.6875 5.859375 -4.6875 5.859375 -3 3.75 C-2.443125 3.04359375 -1.88625 2.3371875 -1.3125 1.609375 C-0.879375 1.07828125 -0.44625 0.5471875 0 0 Z M88 59 C88 59.66 88 60.32 88 61 C87.01 61.33 86.02 61.66 85 62 C85 62.66 85 63.32 85 64 C84.01 64.33 83.02 64.66 82 65 C80.98245132 66.8653245 80.98245132 66.8653245 80.3125 69.0625 C80.06113281 69.79597656 79.80976563 70.52945313 79.55078125 71.28515625 C79.27814453 72.13400391 79.27814453 72.13400391 79 73 C86.40500753 81.82029907 94.47819812 90.08336516 103.30078125 97.4921875 C105 99 105 99 107.5625 102 C109.9256152 104.36069458 109.9256152 104.36069458 113.5 104.0625 C120.30504293 101.9966834 124.46540877 96.99390019 128 91 C130.63520515 84.3520961 130.83612837 76.68121836 128.2109375 69.98828125 C124.6369852 63.29075275 118.88338837 58.10254914 112 55 C103.35852064 52.95115977 95.65596209 54.68125215 88 59 Z M59.8125 83.875 C58.93207031 84.22304687 58.05164063 84.57109375 57.14453125 84.9296875 C54.84519116 85.80913191 54.84519116 85.80913191 54 88 C54.81984375 88.26554687 55.6396875 88.53109375 56.484375 88.8046875 C57.56203125 89.15789062 58.6396875 89.51109375 59.75 89.875 C60.81734375 90.22304687 61.8846875 90.57109375 62.984375 90.9296875 C65.46619926 91.81054222 67.66545831 92.80603481 70 94 C75.24534085 95.93912785 80.61253592 97.50985036 86 99 C82.24172913 94.39611818 78.37336029 90.41183078 73.83203125 86.578125 C72 85 72 85 70.51171875 83.296875 C67.1977425 80.45387729 63.3647375 82.43731451 59.8125 83.875 Z M84 123 C81.71919791 125.28080209 82.19436811 130.28927429 81.875 133.375 C81.77574219 134.2515625 81.67648438 135.128125 81.57421875 136.03125 C81.48527344 136.87429687 81.39632812 137.71734375 81.3046875 138.5859375 C81.1806958 139.74681885 81.1806958 139.74681885 81.05419922 140.93115234 C80.87712204 143.19963974 80.87712204 143.19963974 82 146 C88.04561794 150.00598522 95.01939834 152.25236715 102 154 C103.06089844 154.268125 104.12179688 154.53625 105.21484375 154.8125 C119.0409879 158.04741337 132.88481529 158.16693385 147 158 C144.84084746 153.12971101 141.265544 150.10080851 137.4375 146.5 C136.75880859 145.83613281 136.08011719 145.17226562 135.38085938 144.48828125 C130.64458183 140.01537824 126.10467357 137.24350861 120 135 C118.906875 134.5875 117.81375 134.175 116.6875 133.75 C113.82290068 132.82080069 113.82290068 132.82080069 110 133 C109.67 132.34 109.34 131.68 109 131 C107.02769971 130.22669706 107.02769971 130.22669706 104.625 129.625 C99.79991259 128.26621102 95.13586169 126.6312716 90.4453125 124.8671875 C88.29713221 124.10537276 86.24179143 123.41216793 84 123 Z M208 196 C208.94338311 197.11583519 209.88896261 198.22981366 210.83544922 199.34301758 C211.36177948 199.96356522 211.88810974 200.58411285 212.4303894 201.22346497 C214.5048065 203.571356 216.76634003 205.62829372 219.125 207.6875 C223.90404058 211.87846549 223.90404058 211.87846549 225.7734375 214.24609375 C229.10462412 216.87013374 232.44988179 216.50564897 236.5 216.375 C237.25925781 216.37371094 238.01851563 216.37242187 238.80078125 216.37109375 C244.23638004 216.30628673 244.23638004 216.30628673 249 214 C251.69001325 210.21944084 253 208.32877063 253 203.6875 C252.25357864 200.87790192 252.25357864 200.87790192 249.9375 199.625 C249.298125 199.41875 248.65875 199.2125 248 199 C248 198.34 248 197.68 248 197 C244.72108075 195.36054037 241.09386466 195.87969822 237.4921875 195.90234375 C236.65156769 195.9037587 235.81094788 195.90517365 234.94485474 195.90663147 C232.25486725 195.91223763 229.56496241 195.92479114 226.875 195.9375 C225.05338662 195.94251421 223.23177193 195.94707725 221.41015625 195.95117188 C216.94007223 195.96220906 212.47005014 195.9794778 208 196 Z M97 259 C96.84144531 259.556875 96.68289062 260.11375 96.51953125 260.6875 C94.96932758 265.75777941 93.0625794 269.8499989 89.98828125 274.17578125 C88.68243747 276.24038564 88.68243747 276.24038564 89 280 C89.33 280.99 89.66 281.98 90 283 C90.66 283 91.32 283 92 283 C92.25523437 283.54527344 92.51046875 284.09054687 92.7734375 284.65234375 C97.94205786 294.54514895 105.0824698 303.94415263 112.109375 312.59765625 C113.6391072 314.54142753 114.8519193 316.32684725 116 318.5 C117.71306595 321.60914725 119.7623545 324.24023721 122 327 C122.70885894 328.31138904 123.39456452 329.63777017 124 331 C124.66 331 125.32 331 126 331 C126.24878906 331.53109375 126.49757812 332.0621875 126.75390625 332.609375 C128.31728207 335.60870416 130.09708963 338.41227228 131.9375 341.25 C132.62714844 342.32765625 133.31679687 343.4053125 134.02734375 344.515625 C134.67832031 345.33546875 135.32929688 346.1553125 136 347 C136.99 347 137.98 347 139 347 C140.45724113 345.30799514 140.45724113 345.30799514 141.75 343.0625 C143.91034675 339.62754867 146.1839006 336.45597177 148.75 333.3125 C151.37442866 330.01023877 153.03628804 327.17608517 154 323 C154.66 323 155.32 323 156 323 C157.48440492 321.07118058 158.84514232 319.14963154 160.1875 317.125 C160.99718296 315.92954329 161.80708117 314.73423235 162.6171875 313.5390625 C163.01905273 312.94125977 163.42091797 312.34345703 163.83496094 311.72753906 C165.47077044 309.30193385 167.13817616 306.89913936 168.8125 304.5 C169.369375 303.70078125 169.92625 302.9015625 170.5 302.078125 C171.70017111 300.41538793 172.99271123 298.81947853 174.3125 297.25 C176.28119019 294.62507974 177.12279226 292.14332772 178 289 C178.66 289 179.32 289 180 289 C182.39820305 286.36315253 182.39820305 286.36315253 183 283 C183.99 282.505 183.99 282.505 185 282 C186.41267134 280.26378233 186.41267134 280.26378233 187 278 C186.0223446 275.62948426 186.0223446 275.62948426 184.3125 273.3125 C181.31242225 268.69224296 179.45772955 264.29385994 178 259 C176.10393548 260.10376962 174.20815846 261.20803313 172.3125 262.3125 C170.72888672 263.23482422 170.72888672 263.23482422 169.11328125 264.17578125 C167.16983342 265.31453926 165.23248324 266.46384708 163.3046875 267.62890625 C157.47014702 271.09996338 152.77100456 272.36196044 146.0390625 272.7890625 C144.00713712 272.78266534 144.00713712 272.78266534 143 274 C141.23146708 274.09938863 139.45881725 274.12969223 137.6875 274.125 C136.72199219 274.12757813 135.75648438 274.13015625 134.76171875 274.1328125 C132.32134931 274.01545386 130.3383392 273.64540148 128 273 C126.96875 272.9175 125.9375 272.835 124.875 272.75 C119.70715564 271.74977206 115.60845665 269.46854311 111 267 C109.9275 266.484375 108.855 265.96875 107.75 265.4375 C104.67418544 263.82968784 101.86574951 261.95392012 99 260 C98.34 259.67 97.68 259.34 97 259 Z M63.96411133 291.55566406 C61.30974861 294.85901765 61.52591007 296.90625295 61.57421875 301.109375 C61.57750687 301.79501526 61.58079498 302.48065552 61.58418274 303.18707275 C61.5998924 305.37536201 61.64386753 307.56210901 61.6875 309.75 C61.69899932 311.2057165 61.70878213 312.66144764 61.71679688 314.1171875 C61.78055277 320.82520115 62.08474652 327.35416343 63 334 C65.37235525 333.57636513 66.86307468 333.10313855 68.8046875 331.640625 C71.2234951 329.83297519 73.70566421 328.4719392 76.375 327.0625 C80.41644051 324.89299847 84.24899847 322.63583891 88 320 C86.54217054 315.70531323 84.35070059 312.61985938 81.5625 309.0625 C78.52315326 305.18195021 76.07512226 301.47719305 74 297 C73.34 297 72.68 297 72 297 C71.5978125 296.1028125 71.5978125 296.1028125 71.1875 295.1875 C70.00912025 293.01680046 68.85454914 291.61265143 67 290 C65.70539494 289.89880725 65.70539494 289.89880725 63.96411133 291.55566406 Z M206 290 C203.74114676 293.25397508 203.74114676 293.25397508 203 297 C202.34 297 201.68 297 201 297 C199.61221592 298.98070165 199.61221592 298.98070165 198.25 301.5 C195.80625968 305.73742165 193.15308395 309.58793599 190.1015625 313.40625 C188.81047309 314.95131086 188.81047309 314.95131086 189 317 C188.34 317 187.68 317 187 317 C186.67 317.99 186.34 318.98 186 320 C191.28685295 323.39156604 196.65629112 326.50359746 202.19140625 329.47265625 C205.48835831 331.26557455 208.74154827 333.13802759 212 335 C212 320.81 212 306.62 212 292 C210.02 291.34 208.04 290.68 206 290 Z " fill="#000000" transform="translate(52,9)"/>
<path d="M0 0 C1.50600517 -0.0076664 1.50600517 -0.0076664 3.04243469 -0.01548767 C6.352651 -0.02935804 9.66265852 -0.02842887 12.97290039 -0.02612305 C15.27926206 -0.0300112 17.58562301 -0.03434612 19.89198303 -0.03910828 C24.72293419 -0.04656487 29.55381226 -0.04628311 34.38476562 -0.04101562 C40.56971385 -0.03522 46.75436271 -0.05215721 52.93926144 -0.0753603 C57.70139815 -0.09010468 62.46346287 -0.09096839 67.22561836 -0.08785057 C69.50573889 -0.08836337 71.78586349 -0.09359325 74.06596184 -0.10366249 C77.25641112 -0.11602372 80.44627851 -0.10923682 83.63671875 -0.09765625 C84.57460236 -0.10529999 85.51248596 -0.11294373 86.47879028 -0.12081909 C92.03812906 -0.07630552 95.98119052 0.57984603 100.88305664 3.2746582 C104.0784028 7.46855004 104.1435826 10.98863098 103.79321289 16.02856445 C102.38811765 19.49607417 100.09442743 21.50939697 96.88305664 23.2746582 C93.31989321 24.00080544 89.82623451 23.9584269 86.19946289 23.92163086 C85.13533173 23.93039246 84.07120056 23.93915405 82.974823 23.94818115 C79.46465021 23.97014996 75.95574177 23.95563007 72.44555664 23.9387207 C70.00227619 23.94208953 67.55899737 23.9469427 65.11572266 23.95321655 C59.99796576 23.96058453 54.88064555 23.949884 49.76293945 23.92651367 C43.20548239 23.89802688 36.64904855 23.91443112 30.09162903 23.94437599 C25.04724428 23.96245043 20.0031018 23.95669005 14.95870972 23.94373703 C12.54100422 23.94040347 10.12327667 23.94448828 7.70559692 23.9561348 C4.32535606 23.96884497 0.94676824 23.94946129 -2.43334961 23.92163086 C-3.92972458 23.93681259 -3.92972458 23.93681259 -5.45632935 23.95230103 C-9.91084576 23.88441381 -13.10421853 23.77733641 -16.65966797 20.92172241 C-19.11694336 18.2746582 -19.11694336 18.2746582 -21.11694336 15.2746582 C-20.91318616 9.87509254 -19.64683795 6.37696813 -16.11694336 2.2746582 C-10.82698604 -0.1485735 -5.69949309 -0.01502277 0 0 Z " fill="#000000" transform="translate(270.116943359375,83.725341796875)"/>
<path d="M0 0 C1.19569107 -0.00524185 2.39138214 -0.0104837 3.62330627 -0.0158844 C6.14738184 -0.02229672 8.67148733 -0.02097789 11.19555664 -0.01245117 C15.04953419 -0.0039435 18.90202819 -0.03271309 22.75585938 -0.06445312 C25.21223914 -0.06606536 27.66862152 -0.06548718 30.125 -0.0625 C31.84715981 -0.07935097 31.84715981 -0.07935097 33.60411072 -0.09654236 C40.14708989 -0.03977513 44.36631884 0.41186336 49.62890625 4.43359375 C52.09444795 8.39340314 52.7679352 10.42563389 52.12890625 15.05859375 C50.47939992 18.76998299 49.21458965 21.45744764 45.62890625 23.43359375 C41.11009094 24.23341457 36.62301612 24.20565256 32.04296875 24.203125 C30.69924054 24.21412441 29.35552044 24.22615992 28.0118103 24.23918152 C25.19903517 24.26005406 22.38704149 24.26138797 19.57421875 24.25024414 C15.98308251 24.23856317 12.39549075 24.28603336 8.80500221 24.3497057 C6.03029044 24.39045338 3.25642257 24.39405562 0.48145676 24.38730431 C-1.48116254 24.39056133 -3.44362231 24.42903974 -5.40585327 24.46821594 C-14.0756582 24.35641226 -14.0756582 24.35641226 -17.77960205 21.71786499 C-20.94463788 18.28621064 -22.33484405 16.50295995 -22.49609375 11.74609375 C-21.00118526 7.34441875 -19.93206762 4.50990844 -16.03100586 1.82006836 C-10.69551705 -0.20116044 -5.6607385 -0.01444869 0 0 Z " fill="#000000" transform="translate(271.37109375,127.56640625)"/>
</svg>
