<?xml version="1.0" encoding="UTF-8"?>
<svg version="1.1" xmlns="http://www.w3.org/2000/svg" width="512" height="512">
<path d="M0 0 C6.34286803 4.22857869 7.86053129 10.60797592 9.9375 17.5625 C15.26029818 34.28773905 23.2606278 48.67786115 34.8125 61.875 C35.81023437 63.02355469 35.81023437 63.02355469 36.828125 64.1953125 C48.01954831 76.18612319 63.91560383 85.57707293 80.5 86.25 C96.76511409 85.92223951 110.0161768 77.31946826 121.8125 66.875 C122.43769531 66.33359375 123.06289063 65.7921875 123.70703125 65.234375 C138.37627095 51.63011524 147.90146467 31.68360087 153.48120117 12.81616211 C155.16317952 7.23061257 156.77933656 2.5965252 162.125 -0.4375 C167.09061212 -1.70777287 170.48726635 -1.83858735 175.0625 0.625 C179.61720601 4.35157764 181.1098375 6.63451781 181.77075195 12.60498047 C181.84508034 16.64653205 180.71532049 20.23887352 179.5 24.0625 C179.23654785 24.91602051 178.9730957 25.76954102 178.70166016 26.64892578 C175.15062763 37.60508735 170.54045603 49.64674917 163.53515625 58.875 C161.10391217 63.1090033 161.24995363 66.70219204 161.375 71.5 C161.38893799 72.38719727 161.40287598 73.27439453 161.41723633 74.18847656 C161.6851417 83.76325739 162.79035341 94.65597079 169.8125 101.875 C175.90484503 105.79971823 182.57624792 108.568876 189.1875 111.5 C190.44238976 112.05953502 191.69718839 112.61927446 192.9519043 113.17919922 C202.38000254 117.37949801 211.83388698 121.52105969 221.28833008 125.66162109 C227.43121489 128.3521789 233.57049899 131.0509075 239.70838928 133.75283813 C243.38806707 135.37216617 247.06869401 136.9888975 250.75683594 138.58886719 C276.37209543 149.72129738 294.72757934 163.12091701 308.4375 188 C308.79803467 188.63768311 309.15856934 189.27536621 309.5300293 189.93237305 C317.80078869 205.46949111 319.77418504 223.05129151 322.4375 240.1875 C322.82183093 242.60368858 323.20724152 245.01970567 323.59375 247.43554688 C324.33839622 252.10155236 325.07493116 256.76870834 325.8034668 261.43725586 C326.43566533 265.48707247 327.07850057 269.53478947 327.73754883 273.58032227 C327.94744949 274.87724251 327.94744949 274.87724251 328.16159058 276.20036316 C328.41497754 277.7628447 328.67092109 279.32491524 328.9302063 280.88642883 C331.6340672 297.66164984 331.6340672 297.66164984 328.0625 303.5625 C324.62035748 307.10025759 321.8537229 308.17342332 316.9375 308.25 C312.12528156 308.12243014 309.35739576 307.33343488 305.8125 303.875 C302.44265697 296.82419199 301.56546469 289.25274398 300.42578506 281.59794426 C300.06332449 279.1679959 299.68918076 276.74009477 299.3119812 274.31239319 C298.24238506 267.41425192 297.19402332 260.5129286 296.15185547 253.6105957 C295.51106509 249.37207576 294.85726916 245.13571129 294.19625473 240.90030098 C293.94969467 239.30301708 293.70803877 237.7049668 293.47180557 236.10612297 C290.28404372 214.53529845 283.53107719 196.4521807 267.8125 180.875 C267.25175781 180.28074219 266.69101562 179.68648437 266.11328125 179.07421875 C262.49870977 175.55451791 258.18243782 173.42248633 253.69921875 171.203125 C252.99970093 170.85531982 252.30018311 170.50751465 251.57946777 170.14916992 C243.4351624 166.14034531 235.13239184 162.50083826 226.8125 158.875 C225.24723049 158.18917934 223.68212557 157.50298287 222.1171875 156.81640625 C218.35082991 155.16495945 214.5823231 153.51851961 210.8125 151.875 C210.80663376 152.56689423 210.80076752 153.25878845 210.79472351 153.97164917 C210.7365181 160.53214868 210.66428547 167.09233201 210.57678509 173.65250969 C210.53229508 177.02417426 210.49299406 180.39572394 210.46606445 183.76757812 C210.43232736 187.6552397 210.37999981 191.54228714 210.32421875 195.4296875 C210.31782883 196.62488007 210.3114389 197.82007263 210.30485535 199.05148315 C210.16421622 207.15431479 209.61524586 215.51345789 204.625 222.25 C199.45898569 227.07161336 193.68860967 229.48738903 186.6875 230.1875 C177.00650265 229.40677441 168.50799082 223.63398565 160.3125 218.8125 C158.61577148 217.82527954 158.61577148 217.82527954 156.88476562 216.81811523 C149.20911253 212.33503371 141.59165628 207.75994551 134.06835938 203.02514648 C130.69794664 200.68890484 130.69794664 200.68890484 126.8125 199.875 C125.12319816 202.13355656 123.55157742 204.39873613 122 206.75 C121.00453306 208.22916454 120.00705948 209.70698018 119.0078125 211.18359375 C118.48477539 211.95687012 117.96173828 212.73014648 117.42285156 213.52685547 C114.28548219 218.10163088 111.00678881 222.57436078 107.73901367 227.05639648 C104.9417918 230.90127635 102.1842212 234.76536075 99.49609375 238.6875 C98.69353149 239.85164429 98.69353149 239.85164429 97.87475586 241.03930664 C96.86082957 242.51464148 95.85463922 243.99533415 94.85766602 245.48217773 C91.55364343 250.27298144 88.68965765 252.97988429 83 254.75 C78.54732346 254.92461477 75.46432265 254.3811528 71.8125 251.875 C68.0667416 247.83007954 64.94327218 243.40391369 61.8125 238.875 C61.37534668 238.24835449 60.93819336 237.62170898 60.48779297 236.97607422 C58.20149557 233.69333568 55.93892104 230.39532965 53.69140625 227.0859375 C50.15312039 221.88697365 46.51363903 216.76034802 42.87158203 211.63378906 C40.12022061 207.75426613 37.42932675 203.84663777 34.8125 199.875 C26.04851052 204.0825499 17.69482456 208.79019586 9.375 213.8125 C-20.22061264 231.63770853 -20.22061264 231.63770853 -30.4296875 229.37890625 C-36.2707249 227.6383951 -41.0682909 225.2847531 -44.40625 219.9140625 C-47.18336121 214.57804168 -48.30096089 210.13328458 -48.39282227 204.09667969 C-48.4227401 202.35532745 -48.4227401 202.35532745 -48.45326233 200.57879639 C-48.46997482 199.33076233 -48.48668732 198.08272827 -48.50390625 196.796875 C-48.52468735 195.51516418 -48.54546844 194.23345337 -48.56687927 192.91290283 C-48.62194747 189.51323728 -48.67142364 186.11351262 -48.71972656 182.71374512 C-48.77005332 179.24140186 -48.82568093 175.76914395 -48.88085938 172.296875 C-48.98825422 165.48965739 -49.08974027 158.68236261 -49.1875 151.875 C-54.81104447 154.30062423 -60.43008144 156.73632448 -66.04541016 159.1809082 C-67.95081882 160.00879427 -69.8573702 160.83405603 -71.76513672 161.65649414 C-95.75192976 172.00213508 -114.29220002 182.63883834 -124.98878479 207.73851013 C-128.98306963 218.1897281 -130.93204857 229.15791134 -132.55587959 240.18014336 C-132.88915035 242.44057504 -133.23336557 244.69912553 -133.58006287 246.95753479 C-134.43698227 252.55348344 -135.27625245 258.15204683 -136.11547852 263.75067139 C-136.83066799 268.51744742 -137.55294543 273.28304503 -138.28462029 278.04731941 C-138.62112444 280.25748276 -138.94732665 282.46900255 -139.27308655 284.68077087 C-141.8199479 301.56519307 -141.8199479 301.56519307 -146.75 306.375 C-151.36275328 308.3878378 -155.22920535 308.67991796 -160.1875 307.875 C-164.29834507 305.81957747 -166.53391907 304.14032854 -168.1875 299.875 C-169.18097483 290.20036345 -167.48176497 280.56305753 -165.921875 271.0390625 C-165.68417881 269.54668433 -165.44715283 268.05419928 -165.21075439 266.56161499 C-164.71609594 263.45276562 -164.21448446 260.34514688 -163.70751953 257.23828125 C-163.06558195 253.30170687 -162.43958688 249.36280253 -161.81869125 245.4228611 C-161.33209265 242.34511173 -160.83768995 239.26865356 -160.34101105 236.19251633 C-160.10768283 234.74273424 -159.87645258 233.29261255 -159.64757538 231.84212112 C-155.84041483 207.81705575 -148.66436452 185.33887044 -132.1875 166.875 C-131.46175781 166.05515625 -130.73601562 165.2353125 -129.98828125 164.390625 C-117.41722202 151.00919997 -101.7825492 143.98169923 -85.222229 136.7635498 C-82.17477675 135.4327519 -79.13156954 134.09234256 -76.0879364 132.75283813 C-69.06525462 129.66219625 -62.03969105 126.57815867 -55.01191711 123.49911499 C-41.17420196 117.43815377 -41.17420196 117.43815377 -27.35922241 111.32562256 C-25.55539277 110.5245982 -23.74904641 109.72924876 -21.94262695 108.93408203 C-11.41224371 104.65213886 -11.41224371 104.65213886 -4.4375 96.1875 C-4.05078125 95.39988281 -3.6640625 94.61226563 -3.265625 93.80078125 C0.41504195 83.81230462 2.60043108 70.15885257 -0.86865234 59.85107422 C-2.58627434 56.21633306 -4.8489004 52.93114387 -7.09277344 49.60986328 C-12.1922236 41.52853125 -15.36929137 31.94945183 -18.1875 22.875 C-18.40752686 22.19332764 -18.62755371 21.51165527 -18.85424805 20.80932617 C-20.52175898 15.10042205 -20.16420659 10.39114374 -18.5625 4.625 C-13.74403008 -1.50759808 -7.05947964 -2.49158105 0 0 Z M25.8125 91.875 C25.52117187 92.84179688 25.22984375 93.80859375 24.9296875 94.8046875 C22.69310034 101.98876449 20.34669069 108.4066921 16.14453125 114.7265625 C15.70496094 115.43554688 15.26539063 116.14453125 14.8125 116.875 C14.31878906 117.63039063 13.82507813 118.38578125 13.31640625 119.1640625 C12.71875288 122.379345 13.09702343 122.83121433 14.8203125 125.484375 C15.84142803 126.8779133 16.8819798 128.25733665 17.9375 129.625 C19.06558382 131.15068713 20.19317459 132.67673892 21.3203125 134.203125 C21.90329102 134.97978516 22.48626953 135.75644531 23.08691406 136.55664062 C25.73376235 140.11273448 28.27021562 143.74382891 30.8125 147.375 C31.81323287 148.79337053 32.81453687 150.21133827 33.81640625 151.62890625 C35.80607532 154.44733432 37.7928144 157.26779459 39.77734375 160.08984375 C44.88482099 167.3473513 50.03295334 174.57079324 55.25 181.75 C60.9650484 189.6205809 66.47663294 197.6195473 71.9375 205.66796875 C72.89571982 207.07039007 73.85404937 208.47273642 74.8125 209.875 C75.27914062 210.56932129 75.74578125 211.26364258 76.2265625 211.97900391 C77.37116451 213.64696013 78.58549844 215.26669067 79.8125 216.875 C80.4725 216.875 81.1325 216.875 81.8125 216.875 C83.22937002 215.24931966 83.22937002 215.24931966 84.6484375 213.09765625 C85.21191895 212.28272705 85.77540039 211.46779785 86.35595703 210.62817383 C86.96036621 209.74025146 87.56477539 208.8523291 88.1875 207.9375 C89.46318626 206.08829644 90.73923372 204.239342 92.015625 202.390625 C92.65564453 201.45927734 93.29566406 200.52792969 93.95507812 199.56835938 C96.58597095 195.75342646 99.25860802 191.96880746 101.9375 188.1875 C102.91938508 186.79825782 103.90115612 185.40893504 104.8828125 184.01953125 C105.36524414 183.33713379 105.84767578 182.65473633 106.34472656 181.95166016 C108.33368961 179.13760166 110.32085324 176.32227504 112.30786133 173.50683594 C113.31012388 172.08678781 114.31256501 170.6668657 115.31518555 169.24707031 C117.80560561 165.72022401 120.29378462 162.19183792 122.77734375 158.66015625 C128.6077993 150.37512488 134.48947507 142.13061125 140.44897461 133.93774414 C141.45539294 132.55112685 142.45585413 131.16015875 143.44921875 129.76416016 C144.32074311 128.55644964 145.21730455 127.36617493 146.14453125 126.20068359 C147.48079442 124.53064754 147.48079442 124.53064754 148.8125 121.875 C148.01576775 118.26531513 146.03073561 115.55414063 144 112.5 C140.02830431 106.05941239 137.98098684 99.07130588 135.8125 91.875 C135.13445312 92.31070313 134.45640625 92.74640625 133.7578125 93.1953125 C130.78263144 95.09909872 127.79853193 96.98828428 124.8125 98.875 C123.97589844 99.41125 123.13929688 99.9475 122.27734375 100.5 C105.10981373 111.21923826 85.66640733 115.92553508 65.66455078 111.84521484 C52.11014654 108.62148274 40.36493122 101.67872918 29.19140625 93.5625 C27.1626702 91.7785709 27.1626702 91.7785709 25.8125 91.875 Z M-21.1875 138.875 C-21.1875 159.005 -21.1875 179.135 -21.1875 199.875 C-16.5675 197.235 -11.9475 194.595 -7.1875 191.875 C-5.27839844 190.79734375 -3.36929688 189.7196875 -1.40234375 188.609375 C-0.52255859 188.11179687 0.35722656 187.61421875 1.26367188 187.1015625 C3.03789385 186.09833751 4.81400818 185.09845335 6.59179688 184.1015625 C10.94967279 181.62983481 15.019963 179.18657076 18.8125 175.875 C18.18085938 175.02421875 17.54921875 174.1734375 16.8984375 173.296875 C11.28675471 165.7071033 5.78571227 158.04697981 0.375 150.3125 C-0.21555176 149.46848633 -0.80610352 148.62447266 -1.41455078 147.75488281 C-1.97770996 146.94760742 -2.54086914 146.14033203 -3.12109375 145.30859375 C-3.91942627 144.16753174 -3.91942627 144.16753174 -4.73388672 143.00341797 C-6.01603027 141.12607039 -7.21570607 139.21856992 -8.41015625 137.28515625 C-8.99667969 136.48980469 -9.58320313 135.69445312 -10.1875 134.875 C-14.23099839 134.6513932 -14.23099839 134.6513932 -21.1875 138.875 Z M171.8125 134.875 C170.04910978 137.12992757 168.48917521 139.35423577 166.9375 141.75 C165.96053308 143.21761255 164.98127214 144.6837 164 146.1484375 C163.484375 146.92026367 162.96875 147.69208984 162.4375 148.48730469 C159.18270073 153.26974713 155.74093701 157.9195219 152.31689453 162.58154297 C148.93054209 167.22359265 145.78807684 171.95926105 142.8125 176.875 C146.25872021 178.86514747 149.70518711 180.85486705 153.15185547 182.84423828 C154.8813067 183.84256247 156.61057825 184.84119789 158.33984375 185.83984375 C159.46777344 186.49082031 160.59570312 187.14179688 161.7578125 187.8125 C162.77375488 188.39902344 163.78969727 188.98554688 164.83642578 189.58984375 C170.82181218 193.02980548 176.81859134 196.44990934 182.8125 199.875 C182.8125 179.745 182.8125 159.615 182.8125 138.875 C175.85599839 134.6513932 175.85599839 134.6513932 171.8125 134.875 Z " fill="#000000" transform="translate(175.1875,204.125)"/>
<path d="M0 0 C0.98104706 0.35026749 1.96209412 0.70053497 2.97286987 1.06141663 C6.19581629 2.21618834 9.41018335 3.39311784 12.625 4.5703125 C14.90719482 5.3928018 17.18991978 6.2138214 19.47314453 7.03344727 C24.20048587 8.73342746 28.92437926 10.44251006 33.64550781 12.15966797 C40.17184086 14.53313613 46.70550415 16.88567899 53.2421875 19.23046875 C60.39802233 21.79836716 67.551476 24.37264269 74.70147705 26.95674133 C84.85560029 30.62605998 95.02065259 34.26301126 105.1953125 37.875 C108.82729941 39.16704252 112.45911525 40.45956475 116.09088135 41.75222778 C118.42060095 42.57991939 120.75111051 43.40539132 123.0824585 44.22848511 C126.32786697 45.37447266 129.57040401 46.52827413 132.8125 47.68359375 C133.76134064 48.01620209 134.71018127 48.34881042 135.68777466 48.6914978 C151.2707405 54.27181007 151.2707405 54.27181007 155.75 58.8828125 C157.48967629 64.47462916 157.71526869 69.51477512 155.0703125 74.8046875 C152.041579 78.3849795 149.40291497 79.50520018 145.0625 81.0078125 C144.39025391 81.25853516 143.71800781 81.50925781 143.02539062 81.76757812 C140.24300948 82.79819199 137.43972991 83.7570692 134.625 84.6953125 C134.61913376 85.49853439 134.61326752 86.30175629 134.60722351 87.12931824 C134.54926883 94.70678385 134.47717659 102.28392169 134.38928509 109.86109447 C134.34459777 113.7564149 134.30533827 117.65163114 134.27856445 121.54711914 C134.25251476 125.30799471 134.2121012 129.068469 134.16181374 132.82909584 C134.14515616 134.26232211 134.13363495 135.69561778 134.12738609 137.12892723 C134.11773389 139.13969331 134.08796348 141.15033212 134.05737305 143.16088867 C134.04626999 144.30450363 134.03516693 145.44811859 134.02372742 146.62638855 C133.42081315 151.26689723 131.20421144 154.7126363 127.625 157.6953125 C122.24046376 159.49015791 117.42444314 159.52838803 112.25 157.1328125 C108.42810754 153.58391236 106.86155636 150.14756583 106.36709595 145.02175903 C106.27835262 141.81609052 106.2878261 138.62456004 106.33203125 135.41796875 C106.33627609 134.251483 106.34052094 133.08499725 106.34489441 131.88316345 C106.36162478 128.17447376 106.39926779 124.46633668 106.4375 120.7578125 C106.45255407 118.236336 106.46624121 115.71485094 106.47851562 113.19335938 C106.50895194 107.02696195 106.56768713 100.86175244 106.625 94.6953125 C99.365 97.3353125 92.105 99.9753125 84.625 102.6953125 C84.9859375 105.83933594 85.346875 108.98335938 85.71875 112.22265625 C86.06745037 115.29063637 86.41442187 118.35880747 86.76123047 121.42700195 C87.00193841 123.54830131 87.24442434 125.66939973 87.48876953 127.7902832 C87.84102059 130.85055411 88.18672978 133.91150655 88.53125 136.97265625 C88.6406189 137.91052475 88.74998779 138.84839325 88.8626709 139.81468201 C90.51922911 154.71245665 90.51922911 154.71245665 88.1875 159.8828125 C69.33077966 180.57921287 29.06324236 188.4145043 2.46850586 189.80833435 C0.28204541 189.87418005 -1.90250874 189.91137314 -4.08984375 189.93359375 C-4.89472229 189.9433876 -5.69960083 189.95318146 -6.52886963 189.96327209 C-41.95327965 190.30522545 -74.6219226 185.48589745 -106.5 169.1953125 C-107.21124023 168.83977295 -107.92248047 168.4842334 -108.65527344 168.11791992 C-113.92338701 165.33192257 -117.65146427 162.14238396 -120.375 156.6953125 C-120.85172016 150.34221469 -120.07905844 144.02846651 -119.28125 137.734375 C-119.11477966 136.36579849 -119.11477966 136.36579849 -118.94494629 134.96957397 C-118.59335797 132.08583913 -118.23455957 129.20306329 -117.875 126.3203125 C-117.51671006 123.41599981 -117.15995449 120.51150979 -116.80505371 117.60678101 C-116.58473219 115.80688216 -116.36223776 114.00724767 -116.1373291 112.20791626 C-116.03722534 111.3963205 -115.93712158 110.58472473 -115.83398438 109.74853516 C-115.70074768 108.68005844 -115.70074768 108.68005844 -115.56481934 107.58999634 C-115.3251569 105.51516448 -115.3251569 105.51516448 -115.375 102.6953125 C-116.04992493 102.45585403 -116.72484985 102.21639557 -117.42022705 101.96968079 C-123.83389239 99.6935 -130.24641889 97.41413658 -136.65773392 95.1313448 C-139.95253361 93.95833119 -143.24773611 92.7864792 -146.54394531 91.61743164 C-150.34829814 90.2681029 -154.15073869 88.91345429 -157.953125 87.55859375 C-159.11612122 87.14692459 -160.27911743 86.73525543 -161.47735596 86.31111145 C-182.09106808 78.95006415 -182.09106808 78.95006415 -186.125 75.0078125 C-188.30710158 69.22524331 -188.30710158 64.16538169 -186.125 58.3828125 C-179.5040748 51.91236288 -168.44596203 49.54803066 -159.81640625 46.5 C-158.73468643 46.11487747 -157.65296661 45.72975494 -156.53846741 45.33296204 C-153.00582788 44.07586634 -149.47165521 42.82313995 -145.9375 41.5703125 C-143.44240945 40.68307844 -140.94742597 39.79555089 -138.45263672 38.9074707 C-137.17944594 38.45429267 -135.90625257 38.00112193 -134.63305664 37.54795837 C-133.99831421 37.32203444 -133.36357178 37.0961105 -132.70959473 36.86334038 C-130.76899704 36.17281121 -128.82824615 35.48271431 -126.88745117 34.79273987 C-115.01846997 30.57267539 -103.16005828 26.32336211 -91.30383301 22.06759644 C-88.01287863 20.88743089 -84.72095042 19.71002262 -81.42871094 18.53344727 C-71.96879979 15.15083471 -62.51400256 11.75764899 -53.08776855 8.28208923 C-49.20230515 6.85065552 -45.31276872 5.43049427 -41.42279053 4.01138306 C-39.62704342 3.35252839 -37.83337605 2.68797172 -36.04205322 2.0171814 C-33.5916896 1.09981066 -31.13485628 0.20229869 -28.67578125 -0.69140625 C-27.97716476 -0.95911835 -27.27854828 -1.22683044 -26.5587616 -1.50265503 C-17.13372343 -4.86933095 -9.17621115 -3.41196671 0 0 Z M-29.34765625 28.40234375 C-30.43954254 28.79513016 -31.53142883 29.18791656 -32.65640259 29.59260559 C-36.2533673 30.88882575 -39.84536041 32.19828666 -43.4375 33.5078125 C-45.93236649 34.40962772 -48.4274998 35.31065913 -50.9230957 36.21044922 C-55.45401354 37.84507139 -59.98370889 39.48300422 -64.51193905 41.12505722 C-72.89875939 44.16604946 -81.29481993 47.18059537 -89.6953125 50.18359375 C-90.91324997 50.61910049 -92.13118744 51.05460724 -93.3860321 51.50331116 C-95.77904812 52.35891583 -98.1720886 53.21445211 -100.56515503 54.06991577 C-106.13146992 56.06002598 -111.69712252 58.0519642 -117.26171875 60.046875 C-118.21752838 60.38870316 -119.17333801 60.73053131 -120.15811157 61.0827179 C-124.25938317 62.55398042 -128.34704009 64.03064001 -132.375 65.6953125 C-132.375 66.3553125 -132.375 67.0153125 -132.375 67.6953125 C-131.82870438 67.89115433 -131.28240875 68.08699615 -130.71955872 68.28877258 C-129.02903218 68.8948104 -127.33850588 69.50084888 -125.64797974 70.10688782 C-123.60287645 70.84003668 -121.5577714 71.57318061 -119.51266479 72.30632019 C-113.68849702 74.39420447 -107.86436217 76.4821805 -102.0402832 78.5703125 C-90.70848772 82.63304748 -79.37649725 86.69523272 -68.04335022 90.75419617 C-63.21071069 92.48503889 -58.37822297 94.21630523 -53.54574585 95.94760132 C-51.23366769 96.77579603 -48.9215142 97.60378048 -46.60928345 98.43154907 C-43.36823671 99.59185208 -40.12745144 100.75288267 -36.88671875 101.9140625 C-35.93683075 102.25390671 -34.98694275 102.59375092 -34.00827026 102.94389343 C-32.67132614 103.42316032 -32.67132614 103.42316032 -31.30737305 103.91210938 C-30.46290619 104.21044678 -29.61843933 104.50878418 -28.74838257 104.81616211 C-27.23609187 105.37634612 -25.73796976 105.97764726 -24.26358032 106.63110352 C-15.40189375 110.48774617 -7.58930099 107.38072406 1.05859375 104.1796875 C2.06606659 103.81593521 3.07353943 103.45218292 4.11154175 103.07740784 C7.43199122 101.87602468 10.74716381 100.6607273 14.0625 99.4453125 C16.38467267 98.6021797 18.70718893 97.7599927 21.0300293 96.91870117 C25.96236868 95.1305656 30.89262375 93.33680688 35.82128906 91.53857422 C43.88320771 88.59782514 51.95279907 85.67843605 60.0234375 82.76171875 C62.70778819 81.79140897 65.39210859 80.8210154 68.07641602 79.85058594 C68.72996976 79.61432432 69.3835235 79.37806271 70.0568819 79.13464165 C80.58233236 75.32911021 91.10361169 71.51205745 101.625 67.6953125 C101.625 67.0353125 101.625 66.3753125 101.625 65.6953125 C73.06071993 55.40249833 44.48981607 45.12846184 15.90551758 34.89135742 C14.29196381 34.31334129 14.29196381 34.31334129 12.64581299 33.72364807 C10.65554265 33.01071031 8.66519371 32.2979919 6.67474365 31.58555603 C5.77411194 31.26293289 4.87348022 30.94030975 3.94555664 30.60791016 C3.0721463 30.2973468 2.19873596 29.98678345 1.29885864 29.66680908 C-0.5709778 28.98743894 -2.43223364 28.28419256 -4.28640747 27.56317139 C-14.15958244 23.7697427 -19.57181394 24.80774635 -29.34765625 28.40234375 Z M-88.375 111.6953125 C-90.08075375 123.00977126 -91.75972483 134.25968091 -92.375 145.6953125 C-72.05064589 156.10384536 -49.05870542 162.68976275 -26.125 162.93359375 C-25.35785675 162.94347824 -24.5907135 162.95336273 -23.80032349 162.96354675 C6.394381 163.27204438 34.4760434 160.06677023 61.625 145.6953125 C60.95211619 134.25864052 59.33184349 123.01699968 57.625 111.6953125 C53.60240116 113.06517828 49.58223666 114.44207197 45.5625 115.8203125 C44.93540131 116.03451843 44.30830261 116.24872437 43.66220093 116.46942139 C35.18993559 119.36597008 26.76262469 122.36405005 18.3671875 125.4765625 C15.75112035 126.43985525 13.13473186 127.40227176 10.51834106 128.36468506 C8.8087098 128.99772309 7.10120306 129.63653097 5.39596558 130.28131104 C2.97353817 131.19688209 0.54440075 132.09218739 -1.88671875 132.984375 C-2.59623688 133.25890503 -3.305755 133.53343506 -4.03677368 133.81628418 C-15.1301588 137.82400297 -23.97359681 134.91947189 -34.703125 130.953125 C-36.0640094 130.46326627 -37.4254093 129.97483753 -38.78729248 129.48776245 C-42.34759956 128.21025218 -45.90081191 126.91406899 -49.45275879 125.61352539 C-53.06345797 124.29504698 -56.68033983 122.99377242 -60.296875 121.69140625 C-64.36616551 120.22503039 -68.43476524 118.7569326 -72.49884033 117.27615356 C-73.70739685 116.83584808 -74.91595337 116.3955426 -76.16113281 115.94189453 C-77.21907043 115.55550812 -78.27700806 115.1691217 -79.36700439 114.77102661 C-82.35626293 113.70201322 -85.35956477 112.68780782 -88.375 111.6953125 Z " fill="#000000" transform="translate(271.375,3.3046875)"/>
</svg>
