<?xml version="1.0" encoding="UTF-8"?>
<!-- Uploaded to: SVG Repo, www.svgrepo.com, Generator: SVG Repo Mixer Tools -->
<svg width="800px" height="800px" viewBox="0 0 1024 1024" class="icon" version="1.1" xmlns="http://www.w3.org/2000/svg"><path d="M496.813036 630.902815m-343.885072 0a343.885073 343.885073 0 1 0 687.770145 0 343.885073 343.885073 0 1 0-687.770145 0Z" fill="#FAE2DD"/><path d="M854.844386 573.471044c-40.21635-192.438764-185.242154-334.924587-358.101905-334.924587S178.856926 381.067558 138.640576 573.471044h716.20381z" fill="#002536"/><path d="M978.103972 321.20164H36.864988c-1.164158 0-2.046095-0.952493-2.046095-2.046095V141.392221c0-1.164158 0.952493-2.046095 2.046095-2.046095h941.238984c1.164158 0 2.046095 0.952493 2.046095 2.046095v177.728046c0 1.12888-0.881938 2.081373-2.046095 2.081373z" fill="#002536"/><path d="M973.517897 691.474283h-27.23423c-0.352775 0-0.670273-0.28222-0.670273-0.670273V316.4039c0-0.352775 0.28222-0.670273 0.670273-0.670273h27.23423c0.352775 0 0.670273 0.28222 0.670273 0.670273v374.435388c-0.035278 0.352775-0.352775 0.634995-0.670273 0.634995z" fill="#D0A523"/><path d="M930.549902 661.770627H989.181107v269.026217h-58.631205z" fill="#D0A523"/><path d="M835.688704 177.516381l-75.740793-128.339546-101.740311 149.999931 149.012161 26.105351 82.020188 130.667861L989.181107 208.666414z" fill="#E3602E"/><path d="M801.681193 675.70524m-102.58697 0a102.586971 102.586971 0 1 0 205.173941 0 102.586971 102.586971 0 1 0-205.173941 0Z" fill="#FAE2DD"/><path d="M179.491921 675.70524m-102.58697 0a102.586971 102.586971 0 1 0 205.173941 0 102.586971 102.586971 0 1 0-205.173941 0Z" fill="#FAE2DD"/></svg>