<svg width="14" height="14" viewBox="0 0 14 14" fill="none" xmlns="http://www.w3.org/2000/svg">
<path d="M12.5 9.5C13.0523 9.5 13.5 9.94772 13.5 10.5V12.5C13.5 13.0523 13.0523 13.5 12.5 13.5H1.5C0.947715 13.5 0.5 13.0523 0.5 12.5V10.5C0.5 9.94771 0.947715 9.5 1.5 9.5H12.5Z" fill="#A4A9AD"/>
<path d="M7 0.5C7.55228 0.5 8 0.947715 8 1.5V7C8 7.55228 7.55228 8 7 8H1.43161C0.879326 8 0.431611 7.55228 0.431611 7V1.5C0.431611 0.947715 0.879326 0.5 1.43161 0.5H7Z" fill="#A4A9AD"/>
<path d="M13 4.75C13.2761 4.75 13.5 4.97386 13.5 5.25V7.5C13.5 7.77614 13.2761 8 13 8H10C9.72386 8 9.5 7.77614 9.5 7.5V5.25C9.5 4.97386 9.72386 4.75 10 4.75H13Z" fill="#A4A9AD"/>
<path d="M13 0.5C13.2761 0.5 13.5 0.723858 13.5 1V3.25C13.5 3.52614 13.2761 3.75 13 3.75H10C9.72386 3.75 9.5 3.52614 9.5 3.25V1C9.5 0.723858 9.72386 0.5 10 0.5H13Z" fill="#A4A9AD"/>
</svg>
