<svg width="20" height="20" viewBox="0 0 20 20" fill="none" xmlns="http://www.w3.org/2000/svg">
<path fill-rule="evenodd" clip-rule="evenodd" d="M0.940129 0.627629C1.34199 0.225764 1.88704 0 2.45536 0H10.4351C11.0034 0 11.5484 0.225764 11.9503 0.627629L16.8277 5.50507C17.2296 5.90694 17.4554 6.45199 17.4554 7.0203V17.8571C17.4554 18.4254 17.2296 18.9706 16.8277 19.3724C16.4259 19.7743 15.8809 20 15.3126 20H2.45536C1.88703 20 1.34199 19.7743 0.940129 19.3724C0.538264 18.9706 0.3125 18.4254 0.3125 17.8571V2.14286C0.3125 1.57454 0.538264 1.02949 0.940129 0.627629ZM7.61473 6.4691C8.09624 6.81304 8.20777 7.4822 7.86383 7.96371L5.86884 10.7567C5.68579 11.013 5.39924 11.1757 5.08536 11.2017C4.77149 11.2277 4.46209 11.1142 4.23937 10.8915L3.04239 9.69456C2.62397 9.27613 2.62397 8.59774 3.04239 8.17933C3.46081 7.7609 4.1392 7.7609 4.55761 8.17933L4.86027 8.48197L6.12011 6.7182C6.46406 6.23669 7.13321 6.12516 7.61473 6.4691ZM8.97143 9.10714C8.97143 8.51541 9.45113 8.03571 10.0429 8.03571H13.6143C14.206 8.03571 14.6857 8.51541 14.6857 9.10714C14.6857 9.69887 14.206 10.1786 13.6143 10.1786H10.0429C9.45113 10.1786 8.97143 9.69887 8.97143 9.10714ZM8.97143 14.7769C8.97143 14.1851 9.45113 13.7054 10.0429 13.7054H13.6143C14.206 13.7054 14.6857 14.1851 14.6857 14.7769C14.6857 15.3686 14.206 15.8483 13.6143 15.8483H10.0429C9.45113 15.8483 8.97143 15.3686 8.97143 14.7769ZM7.86383 13.7226C8.20777 13.2411 8.09624 12.572 7.61473 12.228C7.13321 11.8841 6.46406 11.9956 6.12011 12.4771L4.86027 14.2409L4.55761 13.9383C4.1392 13.5198 3.46081 13.5198 3.04239 13.9383C2.62397 14.3567 2.62397 15.035 3.04239 15.4534L4.23937 16.6504C4.46209 16.8731 4.77149 16.9866 5.08536 16.9606C5.39924 16.9347 5.68579 16.7719 5.86884 16.5156L7.86383 13.7226Z" fill="white"/>
</svg>
