<?xml version="1.0" encoding="UTF-8"?>
<svg version="1.1" xmlns="http://www.w3.org/2000/svg" width="512" height="512">
<path d="M0 0 C4.62994259 1.72488057 7.62722164 3.61948611 10 8 C10.92478485 12.64611909 11.04592382 16.9191236 8.8828125 21.22265625 C7.06100572 23.64720009 5.09196583 25.80224145 3 28 C1.96060209 29.1287026 0.92296979 30.25903261 -0.11328125 31.390625 C-2.36881755 33.84286696 -4.6391894 36.2800512 -6.921875 38.70703125 C-9.79705575 41.76991183 -12.58304875 44.89818519 -15.328125 48.078125 C-17.35758073 50.41105074 -19.427647 52.70511245 -21.5 55 C-24.17048344 57.95869751 -26.82298058 60.92926472 -29.4375 63.9375 C-32.24822525 67.16559512 -35.115799 70.33738443 -38 73.5 C-43.29666571 79.30938757 -43.29666571 79.30938757 -48.44921875 85.24609375 C-50 87 -50 87 -51.64453125 88.47265625 C-53.39110721 90.00126358 -53.39110721 90.00126358 -55 93 C-54.63408993 95.69640872 -53.90043415 97.99597182 -52.9296875 100.53515625 C-48.95040795 111.08526296 -50.81165152 121.81909138 -55 132 C-57.90294519 137.39232011 -61.43360113 141.90194973 -66 146 C-66.70125 146.66 -67.4025 147.32 -68.125 148 C-76.26847461 153.66502582 -84.32162887 156.10044123 -94.15429688 156.17700195 C-94.85590942 156.18357315 -95.55752197 156.19014435 -96.28039551 156.19691467 C-98.59318167 156.2165563 -100.90590296 156.22829382 -103.21875 156.23828125 C-104.0143483 156.24235678 -104.80994659 156.2464323 -105.62965393 156.25063133 C-109.84619889 156.27145975 -114.06271168 156.28577172 -118.27929688 156.29516602 C-122.60181511 156.3061846 -126.92381207 156.34054049 -131.24614716 156.38033772 C-134.5973801 156.40668391 -137.94849259 156.41487397 -141.29981995 156.41844749 C-142.8911946 156.42327225 -144.48256541 156.43476645 -146.07383728 156.45348549 C-162.07030223 156.6298683 -171.40624269 153.88636895 -185 144 C-191.6 137.4 -198.2 130.8 -205 124 C-205.33 204.85 -205.66 285.7 -206 369 C-136.82977194 368.84159387 -136.82977194 368.84159387 -67.65966797 368.63964844 C-54.29321289 368.62158203 -54.29321289 368.62158203 -48.03933716 368.6182251 C-43.66368528 368.61449269 -39.28822676 368.59947989 -34.91262817 368.57769775 C-29.3335523 368.55029186 -23.75475821 368.54202965 -18.17562127 368.5477109 C-16.12667333 368.54652266 -14.07771568 368.53857258 -12.02882552 368.52313948 C-9.2628271 368.50327047 -6.49792621 368.5080286 -3.73190308 368.51898193 C-2.92862139 368.50733128 -2.1253397 368.49568062 -1.29771614 368.48367691 C3.91484305 368.53923309 6.85950061 369.56279903 11 373 C14.09705551 377.29591571 14.41634453 380.7306072 13.65234375 385.8125 C12.57124277 389.43774881 10.69409757 391.37161213 8 394 C5.12086032 395.43956984 2.6492681 395.12953729 -0.56998825 395.13422108 C-1.25597808 395.13657331 -1.9419679 395.13892554 -2.6487453 395.14134905 C-4.97033392 395.14805876 -7.29186683 395.14758023 -9.61346436 395.14717102 C-11.28558413 395.15046842 -12.95770311 395.15419372 -14.62982106 395.1583125 C-19.24275885 395.16835472 -23.85568362 395.17205285 -28.46863079 395.17470181 C-33.43672428 395.17859828 -38.4048074 395.18817705 -43.37289429 395.19691467 C-55.37960725 395.21669751 -67.38632107 395.22674751 -79.39304626 395.23564246 C-85.04270411 395.24002231 -90.69236102 395.24538989 -96.34201813 395.25063133 C-115.11496664 395.26764528 -133.88791456 395.28214048 -152.6608696 395.28938007 C-157.53498078 395.29129007 -162.40909196 395.29321039 -167.28320312 395.29516602 C-168.49468786 395.29564976 -169.70617259 395.2961335 -170.95436898 395.2966319 C-190.58905843 395.304936 -210.22368703 395.33027859 -229.85834989 395.36274669 C-250.00204446 395.39578585 -270.14570808 395.41382598 -290.2894299 395.41702431 C-301.60539347 395.41919231 -312.92126829 395.42798319 -324.23720551 395.45348549 C-333.87248436 395.47514957 -343.50765292 395.4832641 -353.14295337 395.47351871 C-358.06114394 395.46896155 -362.97910677 395.47094216 -367.89726639 395.49028015 C-372.39785961 395.50782385 -376.89805747 395.50698605 -381.39865437 395.49138286 C-383.0285742 395.48899335 -384.65852077 395.49339943 -386.28839955 395.50521151 C-388.50163182 395.52026033 -390.71345045 395.51070846 -392.92664719 395.49498463 C-394.15661635 395.49596144 -395.38658552 395.49693824 -396.65382648 395.49794465 C-400.66819376 394.90056597 -402.84120827 393.4992217 -406 391 C-408.92202617 386.79430916 -408.63649352 381.92118162 -408 377 C-405.74458175 372.4891635 -404.56092392 371.28046196 -400 369 C-383.5 369 -367 369 -350 369 C-350 327.09 -350 285.18 -350 242 C-353.3 242.99 -356.6 243.98 -360 245 C-370.76550797 246.4844365 -381.35836739 243.72010371 -390.375 237.75 C-399.48762367 230.77891674 -404.38527321 222.84418037 -408 212 C-408.09840331 210.28306259 -408.13926044 208.56257129 -408.14717102 206.84283447 C-408.15432632 205.77496201 -408.16148163 204.70708954 -408.16885376 203.6068573 C-408.17154266 202.43496353 -408.17423157 201.26306976 -408.17700195 200.05566406 C-408.18357315 198.82110977 -408.19014435 197.58655548 -408.19691467 196.31459045 C-408.21667673 192.21493284 -408.22832569 188.11531447 -408.23828125 184.015625 C-408.24233082 182.59973888 -408.2464478 181.18385295 -408.25063133 179.76796722 C-408.26969247 173.10603102 -408.28391412 166.44410588 -408.2922433 159.78214765 C-408.30197973 152.12270775 -408.32820035 144.46355963 -408.36874419 136.80422235 C-408.39907513 130.8676685 -408.41372864 124.93119736 -408.41702431 118.99456763 C-408.41935816 115.45775637 -408.42809595 111.92125637 -408.45348549 108.38452911 C-408.64678015 80.00175283 -408.64678015 80.00175283 -404 68 C-403.70494568 67.23373795 -403.40989136 66.46747589 -403.105896 65.67799377 C-395.32704868 47.56347316 -380.02163155 34.36691891 -362 27 C-352.02755302 23.22424056 -342.48067629 22.61227795 -331.875 22.5 C-330.70042236 22.48138916 -329.52584473 22.46277832 -328.31567383 22.44360352 C-321.9815821 22.4906445 -317.92323581 22.65680059 -313 27 C-311.66059897 28.08289083 -310.31928556 29.16341854 -308.9765625 30.2421875 C-307.52368021 31.45029071 -306.07320351 32.66129208 -304.625 33.875 C-291.81133721 45.29460018 -291.81133721 45.29460018 -275.79296875 49.4609375 C-268.7136026 48.29259455 -263.42458188 44.01769275 -258.25 39.3125 C-246.56386281 28.98614062 -239.26311471 22.81335555 -223.25 22.75 C-221.99316406 22.729375 -220.73632812 22.70875 -219.44140625 22.6875 C-193.49858276 22.58084913 -173.63533901 32.97437744 -155.47265625 50.5703125 C-154.79211182 51.20912354 -154.11156738 51.84793457 -153.41040039 52.50610352 C-151.44151557 54.54319036 -149.78743719 56.5490015 -148.07202148 58.78881836 C-142.97183554 65.08918314 -138.41504227 70.02295378 -130.10913086 71.26855469 C-123.3755321 71.80191285 -116.67869431 71.57755786 -109.9375 71.3125 C-106.46223626 71.24668335 -102.98726493 71.2018927 -99.51161194 71.16239929 C-97.36427275 71.13040642 -95.21710671 71.07913867 -93.07078552 71.00569153 C-87.88657759 70.85347149 -83.8797109 70.9929634 -79 73 C-76.15730615 73.0403537 -74.6729594 72.57340009 -72.50488281 70.72607422 C-70.80982876 69.01593221 -69.21246043 67.24789227 -67.625 65.4375 C-67.0484668 64.79780273 -66.47193359 64.15810547 -65.87792969 63.49902344 C-64.24004693 61.67617368 -62.61743688 59.84098939 -61 58 C-59.96746094 56.83404297 -59.96746094 56.83404297 -58.9140625 55.64453125 C-57.82812861 54.40819807 -56.74714953 53.16749005 -55.671875 51.921875 C-53.64241927 49.58894926 -51.572353 47.29488755 -49.5 45 C-46.82951656 42.04130249 -44.17701942 39.07073528 -41.5625 36.0625 C-37.91062947 31.86835635 -34.15733816 27.76905708 -30.41015625 23.66015625 C-28.39641748 21.43753696 -26.40687963 19.19931651 -24.4375 16.9375 C-23.89222656 16.31359375 -23.34695313 15.6896875 -22.78515625 15.046875 C-21.43466478 13.49839025 -20.08918227 11.94553511 -18.74609375 10.390625 C-17.96363281 9.49859375 -17.18117188 8.6065625 -16.375 7.6875 C-15.66085937 6.86636719 -14.94671875 6.04523438 -14.2109375 5.19921875 C-9.73149522 0.7435191 -6.33163251 -0.66648763 0 0 Z M-365 60 C-365.86625 60.5775 -366.7325 61.155 -367.625 61.75 C-377.41062605 71.0205931 -381.56662182 83.1863016 -382.09796906 96.4445343 C-382.14337223 99.22576617 -382.1579531 102.00550742 -382.16113281 104.78710938 C-382.16609772 105.83856644 -382.17106262 106.8900235 -382.17617798 107.9733429 C-382.19070987 111.43015205 -382.19758489 114.8869154 -382.203125 118.34375 C-382.20888174 120.75695801 -382.21463941 123.17016602 -382.22039795 125.58337402 C-382.23088092 130.63354708 -382.23674195 135.68370433 -382.24023438 140.73388672 C-382.24572794 147.19666322 -382.26978601 153.65922999 -382.29820633 160.12194061 C-382.3168465 165.10285044 -382.32203895 170.08370973 -382.32357025 175.06465149 C-382.32659175 177.4472214 -382.33460324 179.82979053 -382.34775543 182.21232605 C-382.36485211 185.54600984 -382.36292712 188.87918051 -382.35644531 192.21289062 C-382.3656601 193.19079056 -382.37487488 194.16869049 -382.3843689 195.17622375 C-382.34039197 202.4140075 -381.37508109 208.12490183 -376.625 213.875 C-372.94944024 216.85045314 -370.35909239 217.82049723 -365.6875 218.4375 C-360.92417068 217.87235923 -357.50652142 216.28962318 -354 213 C-349.99892645 207.2615039 -349.42702472 203.0230648 -349.50170898 196.12084961 C-349.49619019 195.15410812 -349.49067139 194.18736664 -349.48498535 193.19132996 C-349.47569245 191.10213688 -349.47553767 189.01288715 -349.48357964 186.92368889 C-349.49623543 183.61530723 -349.48489626 180.30775664 -349.46754456 176.99940491 C-349.44087049 171.17051271 -349.43524799 165.34182505 -349.43664551 159.51287842 C-349.43887598 150.18009988 -349.4247538 140.84757402 -349.38105965 131.51489449 C-349.37122629 128.25873123 -349.3799352 125.00296594 -349.38975525 121.74681091 C-349.38361074 119.74778991 -349.3766989 117.74877108 -349.36889648 115.74975586 C-349.37661575 114.84725098 -349.38433502 113.94474609 -349.39228821 113.01489258 C-349.35143841 107.93974691 -348.87389939 104.37115584 -346 100 C-341.66665607 97.04544732 -338.18918491 96.4339071 -333 97 C-330.1875 98.5 -330.1875 98.5 -328 100 C-327.34 100 -326.68 100 -326 100 C-323.64352925 105.58992536 -323.71006785 110.74851475 -323.7215271 116.70602417 C-323.7128385 118.3246754 -323.7128385 118.3246754 -323.70397437 119.97602665 C-323.68696887 123.59195821 -323.68409734 127.20776216 -323.68115234 130.82373047 C-323.67185457 133.41571872 -323.66168612 136.00770398 -323.65071106 138.59968567 C-323.62845699 144.18008764 -323.61343258 149.76047133 -323.60334396 155.34090805 C-323.58874711 163.4092364 -323.56320747 171.47750106 -323.53501268 179.545792 C-323.48956297 192.63663091 -323.45294064 205.72747901 -323.421875 218.81835938 C-323.391682 231.53354504 -323.35732828 244.24870826 -323.31738281 256.96386719 C-323.31492126 257.74787068 -323.31245972 258.53187418 -323.30992357 259.33963536 C-323.29754883 263.27282251 -323.28509232 267.20600939 -323.27259517 271.13919616 C-323.16905464 303.7594344 -323.08038725 336.37969646 -323 369 C-312.77 369 -302.54 369 -292 369 C-291.98018066 364.18978271 -291.96036133 359.37956543 -291.93994141 354.42358398 C-291.87307538 338.54182746 -291.79553477 322.66013637 -291.71247292 306.77845669 C-291.66236717 297.14813765 -291.61592399 287.51782703 -291.578125 277.88745117 C-291.54516722 269.49288541 -291.50531504 261.09838542 -291.45720994 252.70389229 C-291.43198263 248.2597505 -291.41019021 243.81565212 -291.39665604 239.37145805 C-291.3838015 235.18622309 -291.36171058 231.00113733 -291.33261681 226.81598473 C-291.32356753 225.28217433 -291.317857 223.74833993 -291.31578636 222.21450424 C-291.312445 220.1148349 -291.2969178 218.01558378 -291.2784729 215.91600037 C-291.27017676 214.15583666 -291.27017676 214.15583666 -291.26171303 212.3601141 C-290.87985751 207.45749947 -290.20086508 203.34214333 -286.875 199.625 C-283.28543224 197.59611387 -280.08362989 196.80627942 -276 197 C-272.12678939 198.14291461 -269.79769788 198.95637479 -267.32570171 202.19047832 C-265.71160643 205.61118423 -265.61572789 208.04872826 -265.60127258 211.8273468 C-265.59462576 212.50132151 -265.58797893 213.17529622 -265.58113068 213.86969441 C-265.56252636 216.12072269 -265.56510412 218.37121823 -265.56762695 220.62231445 C-265.55860819 222.23880258 -265.54828069 223.85528387 -265.53674316 225.47175598 C-265.50916035 229.85563566 -265.49988691 234.23938563 -265.49388909 238.62334085 C-265.48450877 243.206481 -265.45830565 247.78952413 -265.43388367 252.37260437 C-265.3902056 261.04933061 -265.36166666 269.72603804 -265.33856028 278.40284079 C-265.31151563 288.28190558 -265.26760366 298.16087283 -265.22227156 308.039868 C-265.12940649 328.35987332 -265.05996093 348.67986911 -265 369 C-254.44 369 -243.88 369 -233 369 C-232.99635437 365.877659 -232.99270874 362.75531799 -232.98895264 359.5383606 C-232.95365403 330.88647794 -232.89859925 302.23470353 -232.82207905 273.58290345 C-232.81206194 269.82545165 -232.80221775 266.06799941 -232.79248047 262.31054688 C-232.78956841 261.18851507 -232.78956841 261.18851507 -232.78659752 260.04381596 C-232.75560122 247.94200524 -232.7386035 235.84021347 -232.72680578 223.73837055 C-232.71438192 211.31491197 -232.68685269 198.89155262 -232.64538693 186.4681567 C-232.62028678 178.80613315 -232.60688017 171.14427425 -232.60857043 163.48220901 C-232.60860378 157.60066636 -232.5875909 151.71931518 -232.55883217 145.83783913 C-232.55032581 143.42966833 -232.5485882 141.02146244 -232.55419731 138.61328316 C-232.56084726 135.31898292 -232.54289122 132.0256761 -232.51898193 128.73147583 C-232.52674235 127.78397622 -232.53450277 126.83647661 -232.54249835 125.8602649 C-232.43578814 117.52446354 -230.39751627 110.25418612 -224.625 104.0625 C-218.09103019 98.12887357 -211.29046844 96.58122501 -202.67578125 96.734375 C-190.84876366 97.9084439 -183.63769256 106.29996408 -175.765625 114.296875 C-175.01224854 115.05911377 -174.25887207 115.82135254 -173.48266602 116.60668945 C-171.97184606 118.14097284 -170.46945537 119.68360997 -168.97631836 121.23510742 C-168.27643799 121.95029541 -167.57655762 122.6654834 -166.85546875 123.40234375 C-166.23309326 124.04679443 -165.61071777 124.69124512 -164.96948242 125.35522461 C-160.75739344 128.87286977 -156.66234155 129.25576737 -151.30126953 129.29052734 C-150.64854065 129.29724457 -149.99581177 129.30396179 -149.32330322 129.31088257 C-147.17639446 129.32980112 -145.02979931 129.33378355 -142.8828125 129.3359375 C-141.38215001 129.34236962 -139.88148876 129.34909829 -138.38082886 129.35610962 C-135.23871963 129.36806693 -132.09672021 129.37179204 -128.95458984 129.37060547 C-124.94081977 129.37040234 -120.92775824 129.39770401 -116.91415596 129.43214989 C-113.81534633 129.4544565 -110.71670623 129.45844188 -107.61782455 129.45738602 C-106.13872715 129.45973634 -104.65962466 129.46852772 -103.18060684 129.48405075 C-92.38625413 129.73425389 -92.38625413 129.73425389 -83 125 C-78.98298454 120.45442988 -77.74240276 115.96766944 -78 110 C-79.72777148 104.71505194 -82.67146689 102.22337572 -87 99 C-89.51097853 97.74451073 -91.26265919 97.85504423 -94.07299805 97.82641602 C-95.13137375 97.81292618 -96.18974945 97.79943634 -97.28019714 97.78553772 C-98.42909927 97.77509933 -99.5780014 97.76466095 -100.76171875 97.75390625 C-103.18424826 97.72095729 -105.60677422 97.68774583 -108.02929688 97.65429688 C-111.85633807 97.60694647 -115.68336592 97.56254251 -119.51049805 97.52319336 C-123.19856213 97.48337781 -126.8863229 97.431843 -130.57421875 97.37890625 C-131.71299973 97.3704921 -132.8517807 97.36207794 -134.02507019 97.35340881 C-143.04981335 97.2135851 -149.02568157 96.58528227 -155.49099731 89.94723511 C-156.13592133 89.2608194 -156.78084534 88.57440369 -157.4453125 87.8671875 C-158.13704559 87.1565213 -158.82877869 86.4458551 -159.54147339 85.71365356 C-162.48208834 82.6919627 -165.39256331 79.64189272 -168.3046875 76.59277344 C-179.00675679 65.43190606 -189.39955281 54.68682443 -205 51 C-206.09441406 50.73896484 -206.09441406 50.73896484 -207.2109375 50.47265625 C-214.95771984 49.15982619 -224.02635414 47.92253287 -231.16796875 51.65625 C-233.9334508 53.97647718 -236.45164997 56.44411048 -239 59 C-241.13479544 60.82006712 -243.33644484 62.54330398 -245.5625 64.25 C-246.11172119 64.67265137 -246.66094238 65.09530273 -247.22680664 65.53076172 C-259.30624502 74.6457549 -270.97628372 77.20617234 -286 76 C-300.63871751 73.24699795 -311.69169567 64.60817943 -321.83984375 54.09375 C-326.64266766 49.63773832 -331.54271212 49.2751165 -337.8581543 49.42504883 C-348.3286345 50.03279218 -356.69058914 53.73783529 -365 60 Z " fill="#000000" transform="translate(408,117)"/>
<path d="M0 0 C1.08767381 -0.00623996 2.17534761 -0.01247993 3.29598123 -0.01890898 C6.94170719 -0.03486722 10.5867672 -0.02222279 14.23249817 -0.00964355 C16.84604787 -0.01506354 19.45959453 -0.0221855 22.07313538 -0.03088379 C28.4368414 -0.04866582 34.80035865 -0.04482965 41.16407206 -0.03323323 C46.33928921 -0.02419393 51.51445351 -0.02297706 56.68967628 -0.02732849 C57.42670884 -0.02794142 58.1637414 -0.02855436 58.92310828 -0.02918586 C60.42051505 -0.0304648 61.9179218 -0.03176165 63.41532854 -0.03307623 C77.4568896 -0.04448212 91.49834622 -0.03137028 105.53989015 -0.00987476 C117.57370905 0.00797767 129.6073735 0.0049075 141.64118958 -0.0135498 C155.62528233 -0.03498847 169.60928339 -0.04336393 183.59339029 -0.03110075 C185.08676897 -0.02982661 186.58014767 -0.02856913 188.07352638 -0.02732849 C188.80822606 -0.02671139 189.54292575 -0.02609429 190.29988905 -0.02545848 C195.46301195 -0.02201317 200.62607644 -0.02781662 205.78919029 -0.0372467 C212.75041183 -0.04968156 219.71133808 -0.04074169 226.67253113 -0.01766968 C229.22381419 -0.0123925 231.77512183 -0.01387929 234.32639503 -0.02272034 C237.817045 -0.03369863 241.30677166 -0.01988287 244.79736328 0 C245.8001125 -0.00892289 246.80286172 -0.01784577 247.83599728 -0.02703905 C259.6145661 0.10252572 268.57906543 4.32811079 277.0872345 12.25012207 C285.31935487 20.78320168 287.97452395 30.91780574 287.85105896 42.50012207 C287.85885891 43.64530304 287.86665887 44.79048401 287.87469518 45.97036743 C287.89450229 49.77489213 287.87889368 53.57840398 287.8631134 57.38293457 C287.86714609 60.12384077 287.87862081 62.86470511 287.8896637 65.60559082 C287.91181421 72.25760195 287.90713174 78.90932987 287.89260049 85.56135178 C287.8812758 90.9709784 287.87979125 96.38052604 287.88521957 101.79016113 C287.88598574 102.56217173 287.8867519 103.33418232 287.88754129 104.12958717 C287.88914003 105.69826001 287.8907611 107.26693283 287.89240424 108.83560562 C287.90663775 123.52057233 287.89030679 138.20538259 287.86340241 152.89032364 C287.84106578 165.47127225 287.84494658 178.05199012 287.86799622 190.63293457 C287.89479674 205.26789137 287.90526468 219.90271129 287.8899349 234.53768921 C287.88834227 236.10036212 287.88677041 237.66303505 287.88521957 239.22570801 C287.8844482 239.99443048 287.88367682 240.76315296 287.88288207 241.55517006 C287.8785778 246.95384654 287.88582404 252.35243568 287.89761734 257.75109863 C287.91168827 264.33671557 287.9077466 270.92203481 287.88121362 277.50761795 C287.86813612 280.86331083 287.86554053 284.21810151 287.87945938 287.57385254 C287.89319109 291.22163924 287.87590384 294.8680474 287.85105896 298.51574707 C287.86221257 299.56207306 287.87336618 300.60839905 287.88485777 301.68643188 C287.73587427 313.01944995 283.50584373 322.21434845 275.6809845 330.31262207 C266.68511998 338.32478667 257.86950097 340.81456174 246.11358643 340.77536011 C244.61025956 340.78215678 244.61025956 340.78215678 243.07656246 340.78909075 C239.72647561 340.80172657 236.37655149 340.80011491 233.02644348 340.79846191 C230.62138154 340.80444749 228.21632153 340.81125311 225.81126404 340.81881714 C219.96211197 340.83464387 214.11299791 340.84092514 208.26382881 340.84204189 C203.50955989 340.8429935 198.75530423 340.84710936 194.00103951 340.85344315 C180.51508933 340.87104346 167.02917093 340.88028342 153.54320919 340.8787822 C152.81692943 340.87870229 152.09064968 340.87862237 151.34236145 340.87854004 C150.6151932 340.87845828 149.88802496 340.87837652 149.13882131 340.87829228 C137.3450874 340.87747877 125.55148101 340.89663578 113.757784 340.92481677 C101.64153136 340.95353977 89.52534094 340.96735753 77.40905339 340.96562922 C70.60916919 340.96496532 63.80941886 340.97045806 57.00956535 340.99198532 C50.61800816 341.01209101 44.22666085 341.01152955 37.83508682 340.99695206 C35.48810094 340.99485635 33.14109758 340.99960994 30.79414177 341.01167297 C27.59299627 341.02706248 24.39283507 341.01785841 21.19171143 341.00241089 C20.26068098 341.01269801 19.32965053 341.02298514 18.37040704 341.033584 C12.81658417 340.97425977 9.61783143 340.22493682 5.21614075 336.50793457 C2.05565091 332.82069642 1.6844848 329.42825634 1.87239075 324.72277832 C2.43105854 321.12318016 3.75807786 319.15507922 6.21614075 316.50793457 C11.93225115 313.41814827 16.67426666 313.08052514 23.09764099 313.12939453 C24.07606315 313.1248644 25.05448531 313.12033427 26.06255662 313.11566687 C29.33214944 313.10406474 32.60133144 313.11368115 35.8709259 313.12316895 C38.21849837 313.11906293 40.5660688 313.11360188 42.91363525 313.10688782 C47.9642063 313.09516827 53.01466808 313.09267652 58.0652504 313.09724426 C65.37289455 313.10347536 72.68042801 313.09151956 79.98804502 313.07373708 C91.85248274 313.0451116 103.71690654 313.02758036 115.58137512 313.01916504 C116.29086199 313.01865786 117.00034886 313.01815068 117.73133533 313.01762813 C123.48889912 313.01359562 129.24646321 313.01010125 135.00402737 313.0066309 C140.03990128 313.00357307 145.075775 313.00030094 150.11164856 312.9967041 C151.17548735 312.99595018 151.17548735 312.99595018 152.26081784 312.99518102 C164.08441005 312.98643858 175.90795435 312.96600775 187.73151433 312.937222 C195.67073097 312.91851212 203.60981027 312.91498369 211.5490458 312.92215729 C216.48230257 312.92367619 221.41547663 312.9129142 226.34871101 312.89877892 C228.63967007 312.89476729 230.93064472 312.89591648 233.22159767 312.90255165 C236.34413771 312.9109022 239.46610264 312.90097817 242.58860779 312.88647461 C243.49920539 312.89336854 244.40980298 312.90026248 245.34799445 312.90736532 C250.11311257 312.86412158 253.38175979 312.66113321 257.21614075 309.50793457 C259.97924903 305.36327215 260.33983242 301.72412234 260.34756851 296.82329082 C260.35140966 295.90561953 260.3552508 294.98794824 260.35920835 294.04246873 C260.35790862 292.54335779 260.35790862 292.54335779 260.35658264 291.01396179 C260.35955376 289.94544348 260.36252489 288.87692516 260.36558604 287.7760275 C260.37426946 284.18950359 260.37578099 280.60301308 260.37727356 277.01647949 C260.38190193 274.44747344 260.38692662 271.87846807 260.39231873 269.3094635 C260.4058862 262.32597581 260.4119241 255.34249387 260.41632938 248.3589952 C260.41909411 243.99711915 260.42333185 239.6352453 260.42783356 235.27337074 C260.44002344 223.19228219 260.45032377 211.1111954 260.45370865 199.03010082 C260.45392821 198.25727478 260.45414778 197.48444873 260.454374 196.68820371 C260.45459228 195.91355151 260.45481056 195.13889931 260.45503545 194.34077281 C260.45547891 192.77108649 260.45592547 191.20140018 260.45637512 189.63171387 C260.45659655 188.85309879 260.45681798 188.07448371 260.45704612 187.27227423 C260.46099435 174.6553103 260.47845036 162.03840412 260.50173464 149.4214625 C260.52545719 136.46228107 260.53791089 123.5031286 260.53907657 110.54392511 C260.53999274 103.27001156 260.54573073 95.99617329 260.56389618 88.7222805 C260.58092141 81.88097942 260.58254305 75.03982338 260.57375717 68.19850731 C260.57298565 65.68788267 260.57734462 63.17725041 260.58721542 60.66664505 C260.59990293 57.23854534 260.59407501 53.81095437 260.58363342 50.38285828 C260.59168983 49.39014315 260.59974623 48.39742803 260.60804677 47.37463063 C260.56559573 41.4126985 259.94662006 36.86018535 257.21614075 31.50793457 C252.94734595 27.35843218 247.34750303 28.09066195 241.74667358 28.12939453 C240.68082769 28.1248644 239.61498179 28.12033427 238.51683754 28.11566687 C234.93934954 28.10402395 231.36223406 28.11369778 227.78474426 28.12316895 C225.22234353 28.11906474 222.65994466 28.11360476 220.09754944 28.10688782 C214.57658159 28.09515143 209.05572212 28.09234764 203.53474617 28.09724426 C195.54583805 28.10405228 187.55704802 28.091535 179.568161 28.07373708 C166.59788013 28.04508826 153.627612 28.02757456 140.65730286 28.01916504 C139.49307923 28.01840427 139.49307923 28.01840427 138.30533593 28.01762813 C132.7964377 28.01410112 127.28753927 28.01097178 121.77864075 28.00793457 C115.48754356 28.00446582 109.19644654 28.00081666 102.90534973 27.9967041 C102.13044992 27.99620149 101.35555011 27.99569887 100.55716849 27.99518102 C87.63639501 27.98643696 74.71566535 27.96600082 61.79492134 27.937222 C53.82623227 27.92004174 45.85766719 27.91345729 37.88896202 27.92052805 C31.78396064 27.92520089 25.679083 27.91476868 19.57409668 27.89877892 C17.06908897 27.89476875 14.56406699 27.895914 12.05906487 27.90255165 C8.6433882 27.91090825 5.22823643 27.90097079 1.81259155 27.88647461 C0.32061677 27.89681551 0.32061677 27.89681551 -1.20149893 27.90736532 C-6.48102315 27.86362116 -10.23846028 27.50462098 -14.78385925 24.50793457 C-17.86658526 21.09194088 -19.6784387 18.87840171 -20.03385925 14.25793457 C-19.67858006 8.92874673 -18.37217913 5.90177016 -14.34066296 2.36389923 C-9.88704072 -0.45825334 -5.11548026 -0.04501896 0 0 Z " fill="#000000" transform="translate(224.7838592529297,-0.5079345703125)"/>
<path d="M0 0 C3.54307942 2.80841148 6.79894181 5.80992315 10 9 C10.63808594 9.61488281 11.27617187 10.22976562 11.93359375 10.86328125 C23.3356284 22.72241306 27.52199326 38.74663812 27.42211914 54.78198242 C26.88681258 72.44007864 19.46072341 87.94021024 6.7578125 100.15625 C-7.10772102 111.97604906 -23.82114601 117.41198435 -41.93847656 116.20703125 C-58.80901504 114.51278485 -73.83071351 106.79318984 -85 94 C-91.22681734 86.17761786 -95.56210122 77.73708381 -98 68 C-98.18949219 67.2678125 -98.37898438 66.535625 -98.57421875 65.78125 C-101.19650075 48.65221531 -98.84921736 31.5008433 -89 17 C-86.19149163 13.45679835 -83.18731572 10.20383031 -80 7 C-79.40832031 6.37351562 -78.81664063 5.74703125 -78.20703125 5.1015625 C-74.00446067 1.00104109 -69.25035225 -1.66249061 -64.0625 -4.3125 C-63.07817993 -4.81934326 -63.07817993 -4.81934326 -62.07397461 -5.33642578 C-42.87050988 -14.70686255 -17.42142527 -11.8329259 0 0 Z M-62.03515625 26.88671875 C-70.2101842 35.72130309 -72.5267663 44.2410025 -72.265625 56.109375 C-71.53500588 66.8107962 -66.8044553 73.85453017 -59 81 C-51.30794797 87.12134675 -42.83418672 89.6338248 -33.0546875 89.34765625 C-22.08208023 88.09885568 -13.20847427 82.3804521 -6.31640625 73.9296875 C-0.39242597 65.24587071 0.8178346 56.31639932 0 46 C-2.11839119 36.26305736 -7.27996254 28.34934094 -15.4375 22.625 C-30.84326193 13.23060801 -48.48211265 14.32218889 -62.03515625 26.88671875 Z " fill="#000000" transform="translate(166,10)"/>
<path d="M0 0 C1.71379097 -0.00639748 1.71379097 -0.00639748 3.46220398 -0.01292419 C4.70650177 -0.01247101 5.95079956 -0.01201782 7.23280334 -0.0115509 C8.55038132 -0.01490952 9.86795929 -0.01826813 11.22546387 -0.02172852 C14.83289827 -0.03054762 18.44030895 -0.03290572 22.0477531 -0.0335443 C24.30301265 -0.03425587 26.55826619 -0.0363922 28.81352425 -0.03904152 C36.68538419 -0.04828729 44.55722722 -0.05237728 52.42909241 -0.05158997 C59.76076462 -0.05098904 67.09236329 -0.06154573 74.42401689 -0.07733363 C80.72479979 -0.09041703 87.02555867 -0.09577354 93.32635504 -0.09513456 C97.08686858 -0.09487985 100.84731671 -0.09771613 104.6078167 -0.10831261 C108.80187371 -0.11980878 112.99576618 -0.11524188 117.18983459 -0.10920715 C119.05324493 -0.11763641 119.05324493 -0.11763641 120.95429993 -0.12623596 C122.67232063 -0.11994423 122.67232063 -0.11994423 124.42504883 -0.11352539 C125.41593474 -0.11407016 126.40682066 -0.11461493 127.42773342 -0.1151762 C133.67961443 0.43112637 137.1671329 2.4378461 141.27601624 7.13371277 C143.1206947 10.82306969 142.62611176 15.09806619 142.27601624 19.13371277 C140.5378694 23.43333915 138.35959875 25.07297413 134.27601624 27.13371277 C131.41301823 27.51682281 131.41301823 27.51682281 128.21035767 27.52812195 C126.99210297 27.53947174 125.77384827 27.55082153 124.51867676 27.56251526 C123.17680293 27.55987219 121.83492971 27.55690101 120.49305725 27.55363464 C119.0734948 27.56097767 117.65393832 27.56956458 116.23439026 27.57929993 C112.38517971 27.60149938 108.53618332 27.60444745 104.68691754 27.60255241 C101.47119816 27.60243265 98.25552405 27.61099917 95.03981727 27.61932993 C87.45242248 27.63855805 79.8651377 27.64144986 72.27772522 27.63468933 C64.45511056 27.62804743 56.63296728 27.65091993 48.81044823 27.68800306 C42.08926254 27.71870698 35.36822844 27.7300594 28.64697403 27.72616625 C24.63483123 27.72409958 20.62305535 27.7295649 16.61097908 27.75405884 C12.83753344 27.77633551 9.06485399 27.77444146 5.29140472 27.75413132 C3.90872794 27.75072289 2.52599948 27.7558034 1.14339256 27.7701149 C-10.5987961 27.88324796 -10.5987961 27.88324796 -14.50756836 24.70854187 C-18.14536832 20.48247793 -19.19433806 17.91623128 -19.04429626 12.16105652 C-18.37655448 7.9347396 -15.81582499 5.15511263 -12.78648376 2.32121277 C-8.78408362 0.01680056 -4.52918122 0.00766293 0 0 Z " fill="#000000" transform="translate(275.72398376464844,57.86628723144531)"/>
<path d="M0 0 C0.71314865 -0.00540298 1.4262973 -0.01080597 2.16105652 -0.01637268 C4.49704662 -0.02878763 6.8317867 -0.01242059 9.16772461 0.00561523 C10.80244511 0.00546009 12.43716598 0.00396861 14.07188416 0.00120544 C17.48884449 -0.00017524 20.90538338 0.01232498 24.32226562 0.03515625 C28.69247913 0.06356269 33.06199418 0.06079313 37.43225956 0.04806614 C40.80470196 0.04109767 44.17698412 0.04891114 47.54940605 0.06132317 C49.16047996 0.06582475 50.77157115 0.06618581 52.38264656 0.06225777 C54.63696454 0.05933339 56.89033351 0.0759087 59.14453125 0.09765625 C60.4246962 0.10305923 61.70486115 0.10846222 63.02381897 0.11402893 C68.18661872 0.68855777 71.40809473 2.28650129 74.88256836 6.12670898 C76.96024394 10.44188135 77.34253874 13.79551231 76.50756836 18.50170898 C74.25423784 23.00837002 72.01144996 25.32567383 67.50756836 27.50170898 C64.09938049 27.88265991 64.09938049 27.88265991 60.15039062 27.88989258 C59.42778046 27.89514954 58.70517029 27.90040649 57.96066284 27.90582275 C55.58154423 27.91898284 53.20309956 27.91029831 50.82397461 27.90014648 C49.16397473 27.9021686 47.50397572 27.90508118 45.84397888 27.90884399 C42.3680677 27.91326211 38.89238812 27.90685371 35.41650391 27.89282227 C30.9700323 27.87574391 26.52410452 27.88556604 22.07765293 27.90353966 C18.65032385 27.9144028 15.22312275 27.91091935 11.79578972 27.90315628 C10.15679802 27.90116057 8.51779455 27.90359139 6.8788166 27.91059494 C4.58361362 27.91824982 2.28927925 27.90654922 -0.00585938 27.88989258 C-1.30982162 27.8875058 -2.61378387 27.88511902 -3.95726013 27.88265991 C-8.65970952 27.37592284 -12.10362874 26.03418115 -15.30493164 22.50170898 C-17.6913301 18.48251159 -17.80386883 15.09540751 -17.49243164 10.50170898 C-15.89372501 5.70558909 -13.86160535 3.72874733 -9.44464302 1.32679558 C-6.28881559 -0.00698975 -3.40086754 0.00044117 0 0 Z " fill="#000000" transform="translate(274.492431640625,116.498291015625)"/>
</svg>
